<mxfile host="app.diagrams.net" agent="Mozilla/5.0 (X11; Linux x86_64; rv:135.0) Gecko/20100101 Firefox/135.0" version="28.2.3">
  <diagram name="Page-1" id="vITL5Lm4Mc-cV5nNlmRt">
    <mxGraphModel dx="1426" dy="866" grid="1" gridSize="10" guides="1" tooltips="1" connect="1" arrows="1" fold="1" page="1" pageScale="1" pageWidth="827" pageHeight="1169" math="0" shadow="0">
      <root>
        <mxCell id="0" />
        <mxCell id="1" parent="0" />
        <mxCell id="dwe6SSOjRqwcFj5i-Lfe-1" style="edgeStyle=orthogonalEdgeStyle;rounded=0;orthogonalLoop=1;jettySize=auto;html=1;strokeColor=#000000;fontColor=#000000;" parent="1" source="dwe6SSOjRqwcFj5i-Lfe-7" target="dwe6SSOjRqwcFj5i-Lfe-25" edge="1">
          <mxGeometry relative="1" as="geometry" />
        </mxCell>
        <mxCell id="dwe6SSOjRqwcFj5i-Lfe-2" value="index with metadata" style="text;html=1;align=center;verticalAlign=middle;resizable=0;points=[];labelBackgroundColor=#ffffff;" parent="dwe6SSOjRqwcFj5i-Lfe-1" vertex="1" connectable="0">
          <mxGeometry x="0.4343" relative="1" as="geometry">
            <mxPoint x="-53.5" as="offset" />
          </mxGeometry>
        </mxCell>
        <mxCell id="dwe6SSOjRqwcFj5i-Lfe-3" style="edgeStyle=orthogonalEdgeStyle;rounded=0;orthogonalLoop=1;jettySize=auto;html=1;startArrow=none;startFill=0;strokeColor=#000000;fontColor=#000000;" parent="1" source="dwe6SSOjRqwcFj5i-Lfe-7" target="dwe6SSOjRqwcFj5i-Lfe-11" edge="1">
          <mxGeometry relative="1" as="geometry" />
        </mxCell>
        <mxCell id="dwe6SSOjRqwcFj5i-Lfe-4" value="case available" style="edgeLabel;html=1;align=center;verticalAlign=middle;resizable=0;points=[];fontColor=#000000;" parent="dwe6SSOjRqwcFj5i-Lfe-3" vertex="1" connectable="0">
          <mxGeometry x="-0.0868" y="3" relative="1" as="geometry">
            <mxPoint as="offset" />
          </mxGeometry>
        </mxCell>
        <mxCell id="dwe6SSOjRqwcFj5i-Lfe-5" value="upload case" style="edgeStyle=orthogonalEdgeStyle;rounded=0;orthogonalLoop=1;jettySize=auto;html=1;entryX=0.5;entryY=1;entryDx=0;entryDy=0;startArrow=classic;startFill=1;strokeColor=#000000;fontColor=#000000;exitX=0.875;exitY=0;exitDx=0;exitDy=0;exitPerimeter=0;endArrow=none;endFill=0;" parent="1" source="dwe6SSOjRqwcFj5i-Lfe-7" target="dwe6SSOjRqwcFj5i-Lfe-60" edge="1">
          <mxGeometry relative="1" as="geometry">
            <Array as="points">
              <mxPoint x="525" y="270" />
              <mxPoint x="632" y="270" />
            </Array>
          </mxGeometry>
        </mxCell>
        <mxCell id="dwe6SSOjRqwcFj5i-Lfe-6" style="edgeStyle=orthogonalEdgeStyle;rounded=0;orthogonalLoop=1;jettySize=auto;html=1;entryX=0.5;entryY=1;entryDx=0;entryDy=0;exitX=0.25;exitY=0;exitDx=0;exitDy=0;" parent="1" source="dwe6SSOjRqwcFj5i-Lfe-7" target="dwe6SSOjRqwcFj5i-Lfe-108" edge="1">
          <mxGeometry relative="1" as="geometry">
            <Array as="points">
              <mxPoint x="448" y="260" />
              <mxPoint x="307" y="260" />
              <mxPoint x="307" y="170" />
            </Array>
            <mxPoint x="800" y="170" as="targetPoint" />
            <mxPoint x="400" y="270" as="sourcePoint" />
          </mxGeometry>
        </mxCell>
        <mxCell id="dwe6SSOjRqwcFj5i-Lfe-7" value="Case server" style="rounded=1;whiteSpace=wrap;html=1;fillColor=#fff2cc;strokeColor=#d6b656;" parent="1" vertex="1">
          <mxGeometry x="418" y="290" width="122" height="60" as="geometry" />
        </mxCell>
        <mxCell id="dwe6SSOjRqwcFj5i-Lfe-8" style="edgeStyle=orthogonalEdgeStyle;rounded=0;orthogonalLoop=1;jettySize=auto;html=1;fontColor=#FF33FF;entryX=0.25;entryY=0;entryDx=0;entryDy=0;exitX=0.25;exitY=0.963;exitDx=0;exitDy=0;exitPerimeter=0;" parent="1" source="dwe6SSOjRqwcFj5i-Lfe-11" target="dwe6SSOjRqwcFj5i-Lfe-46" edge="1">
          <mxGeometry relative="1" as="geometry">
            <mxPoint x="234" y="470" as="sourcePoint" />
            <mxPoint x="269" y="520" as="targetPoint" />
          </mxGeometry>
        </mxCell>
        <mxCell id="dwe6SSOjRqwcFj5i-Lfe-9" value="wait for IGMs" style="text;html=1;align=center;verticalAlign=middle;resizable=0;points=[];labelBackgroundColor=#ffffff;" parent="dwe6SSOjRqwcFj5i-Lfe-8" vertex="1" connectable="0">
          <mxGeometry x="0.12" y="22" relative="1" as="geometry">
            <mxPoint x="13.54" y="-39.5" as="offset" />
          </mxGeometry>
        </mxCell>
        <mxCell id="dwe6SSOjRqwcFj5i-Lfe-10" style="edgeStyle=orthogonalEdgeStyle;rounded=0;orthogonalLoop=1;jettySize=auto;html=1;entryX=0.5;entryY=0;entryDx=0;entryDy=0;startArrow=none;startFill=0;exitX=0;exitY=0.5;exitDx=0;exitDy=0;" parent="1" source="dwe6SSOjRqwcFj5i-Lfe-11" target="dwe6SSOjRqwcFj5i-Lfe-56" edge="1">
          <mxGeometry relative="1" as="geometry">
            <Array as="points">
              <mxPoint x="190" y="430" />
              <mxPoint x="190" y="1050" />
            </Array>
          </mxGeometry>
        </mxCell>
        <mxCell id="dwe6SSOjRqwcFj5i-Lfe-11" value="Rabbit MQ" style="ellipse;whiteSpace=wrap;html=1;fillColor=#dae8fc;strokeColor=#6c8ebf;" parent="1" vertex="1">
          <mxGeometry x="233" y="390" width="120" height="80" as="geometry" />
        </mxCell>
        <mxCell id="dwe6SSOjRqwcFj5i-Lfe-12" value="FTP" style="shape=cylinder;whiteSpace=wrap;html=1;boundedLbl=1;backgroundOutline=1;fillColor=#dae8fc;strokeColor=#6c8ebf;" parent="1" vertex="1">
          <mxGeometry x="443" y="10" width="60" height="80" as="geometry" />
        </mxCell>
        <mxCell id="dwe6SSOjRqwcFj5i-Lfe-13" style="edgeStyle=orthogonalEdgeStyle;rounded=0;orthogonalLoop=1;jettySize=auto;html=1;entryX=0.45;entryY=0.017;entryDx=0;entryDy=0;entryPerimeter=0;" parent="1" source="dwe6SSOjRqwcFj5i-Lfe-17" target="dwe6SSOjRqwcFj5i-Lfe-7" edge="1">
          <mxGeometry relative="1" as="geometry" />
        </mxCell>
        <mxCell id="dwe6SSOjRqwcFj5i-Lfe-14" value="upload case" style="text;html=1;align=center;verticalAlign=middle;resizable=0;points=[];labelBackgroundColor=#ffffff;" parent="dwe6SSOjRqwcFj5i-Lfe-13" vertex="1" connectable="0">
          <mxGeometry x="-0.2232" y="-3" relative="1" as="geometry">
            <mxPoint as="offset" />
          </mxGeometry>
        </mxCell>
        <mxCell id="dwe6SSOjRqwcFj5i-Lfe-15" style="edgeStyle=orthogonalEdgeStyle;rounded=0;orthogonalLoop=1;jettySize=auto;html=1;entryX=0.15;entryY=0.95;entryDx=0;entryDy=0;entryPerimeter=0;" parent="1" source="dwe6SSOjRqwcFj5i-Lfe-17" target="dwe6SSOjRqwcFj5i-Lfe-158" edge="1">
          <mxGeometry relative="1" as="geometry">
            <Array as="points">
              <mxPoint x="509" y="110" />
              <mxPoint x="719" y="110" />
            </Array>
            <mxPoint x="720" y="60" as="targetPoint" />
          </mxGeometry>
        </mxCell>
        <mxCell id="dwe6SSOjRqwcFj5i-Lfe-16" value="polling" style="edgeStyle=orthogonalEdgeStyle;rounded=0;orthogonalLoop=1;jettySize=auto;html=1;entryX=0.5;entryY=1;entryDx=0;entryDy=0;startArrow=none;startFill=0;endArrow=classic;endFill=1;strokeColor=#000000;fontColor=#000000;" parent="1" source="dwe6SSOjRqwcFj5i-Lfe-17" target="dwe6SSOjRqwcFj5i-Lfe-12" edge="1">
          <mxGeometry relative="1" as="geometry" />
        </mxCell>
        <mxCell id="dwe6SSOjRqwcFj5i-Lfe-17" value="&lt;div&gt;case import job&lt;br&gt;&lt;/div&gt;&lt;div&gt;(k8s cron)&lt;/div&gt;" style="rounded=1;whiteSpace=wrap;html=1;fillColor=#fff2cc;strokeColor=#d6b656;" parent="1" vertex="1">
          <mxGeometry x="413" y="150" width="120" height="60" as="geometry" />
        </mxCell>
        <mxCell id="dwe6SSOjRqwcFj5i-Lfe-18" style="edgeStyle=orthogonalEdgeStyle;rounded=0;orthogonalLoop=1;jettySize=auto;html=1;entryX=0.633;entryY=1.017;entryDx=0;entryDy=0;entryPerimeter=0;exitX=1;exitY=0.25;exitDx=0;exitDy=0;" parent="1" source="dwe6SSOjRqwcFj5i-Lfe-46" target="dwe6SSOjRqwcFj5i-Lfe-7" edge="1">
          <mxGeometry relative="1" as="geometry">
            <Array as="points">
              <mxPoint x="359" y="581" />
              <mxPoint x="359" y="510" />
              <mxPoint x="495" y="510" />
            </Array>
          </mxGeometry>
        </mxCell>
        <mxCell id="dwe6SSOjRqwcFj5i-Lfe-19" value="&lt;div&gt;download IGM&lt;/div&gt;&lt;div&gt;search IGM&lt;br&gt;&lt;/div&gt;" style="text;html=1;align=center;verticalAlign=middle;resizable=0;points=[];labelBackgroundColor=#ffffff;" parent="dwe6SSOjRqwcFj5i-Lfe-18" vertex="1" connectable="0">
          <mxGeometry x="0.3677" y="1" relative="1" as="geometry">
            <mxPoint x="27" y="-56" as="offset" />
          </mxGeometry>
        </mxCell>
        <mxCell id="dwe6SSOjRqwcFj5i-Lfe-20" value="import IGM" style="edgeStyle=orthogonalEdgeStyle;rounded=0;orthogonalLoop=1;jettySize=auto;html=1;entryX=0;entryY=0.5;entryDx=0;entryDy=0;strokeColor=#000000;fontColor=#000000;exitX=1;exitY=0.5;exitDx=0;exitDy=0;" parent="1" source="dwe6SSOjRqwcFj5i-Lfe-46" target="dwe6SSOjRqwcFj5i-Lfe-33" edge="1">
          <mxGeometry x="-0.1802" relative="1" as="geometry">
            <Array as="points">
              <mxPoint x="389" y="598" />
              <mxPoint x="389" y="533" />
            </Array>
            <mxPoint as="offset" />
          </mxGeometry>
        </mxCell>
        <mxCell id="dwe6SSOjRqwcFj5i-Lfe-21" value="ajust balance on CGM" style="edgeStyle=orthogonalEdgeStyle;rounded=0;orthogonalLoop=1;jettySize=auto;html=1;entryX=0;entryY=0.5;entryDx=0;entryDy=0;strokeColor=#000000;fontColor=#000000;exitX=0.35;exitY=1.015;exitDx=0;exitDy=0;exitPerimeter=0;" parent="1" source="dwe6SSOjRqwcFj5i-Lfe-46" target="dwe6SSOjRqwcFj5i-Lfe-35" edge="1">
          <mxGeometry x="0.3879" y="13" relative="1" as="geometry">
            <mxPoint y="1" as="offset" />
          </mxGeometry>
        </mxCell>
        <mxCell id="dwe6SSOjRqwcFj5i-Lfe-22" style="edgeStyle=orthogonalEdgeStyle;rounded=0;orthogonalLoop=1;jettySize=auto;html=1;exitX=0.583;exitY=1;exitDx=0;exitDy=0;entryX=0;entryY=0.5;entryDx=0;entryDy=0;strokeColor=#000000;fontColor=#000000;exitPerimeter=0;" parent="1" source="dwe6SSOjRqwcFj5i-Lfe-46" target="dwe6SSOjRqwcFj5i-Lfe-38" edge="1">
          <mxGeometry relative="1" as="geometry" />
        </mxCell>
        <mxCell id="dwe6SSOjRqwcFj5i-Lfe-23" value="run SA on CGM" style="text;html=1;align=center;verticalAlign=middle;resizable=0;points=[];labelBackgroundColor=#ffffff;fontColor=#000000;" parent="dwe6SSOjRqwcFj5i-Lfe-22" vertex="1" connectable="0">
          <mxGeometry x="-0.2998" relative="1" as="geometry">
            <mxPoint x="81" y="19" as="offset" />
          </mxGeometry>
        </mxCell>
        <mxCell id="dwe6SSOjRqwcFj5i-Lfe-24" value="validate IGM" style="edgeStyle=orthogonalEdgeStyle;rounded=0;orthogonalLoop=1;jettySize=auto;html=1;strokeColor=#000000;fontColor=#000000;exitX=0.808;exitY=1;exitDx=0;exitDy=0;entryX=0.5;entryY=0;entryDx=0;entryDy=0;exitPerimeter=0;" parent="1" source="dwe6SSOjRqwcFj5i-Lfe-46" target="dwe6SSOjRqwcFj5i-Lfe-53" edge="1">
          <mxGeometry relative="1" as="geometry">
            <mxPoint x="475" y="595" as="sourcePoint" />
            <mxPoint x="169" y="700" as="targetPoint" />
            <Array as="points">
              <mxPoint x="306" y="690" />
              <mxPoint x="413" y="690" />
            </Array>
          </mxGeometry>
        </mxCell>
        <mxCell id="dwe6SSOjRqwcFj5i-Lfe-25" value="Elastic search" style="shape=cylinder;whiteSpace=wrap;html=1;boundedLbl=1;backgroundOutline=1;fillColor=#dae8fc;strokeColor=#6c8ebf;" parent="1" vertex="1">
          <mxGeometry x="756.5" y="280" width="60" height="80" as="geometry" />
        </mxCell>
        <mxCell id="dwe6SSOjRqwcFj5i-Lfe-26" style="edgeStyle=orthogonalEdgeStyle;rounded=0;orthogonalLoop=1;jettySize=auto;html=1;strokeColor=#000000;fontColor=#000000;exitX=0.558;exitY=1.031;exitDx=0;exitDy=0;entryX=0.75;entryY=0;entryDx=0;entryDy=0;exitPerimeter=0;startArrow=classic;startFill=1;" parent="1" source="dwe6SSOjRqwcFj5i-Lfe-33" target="dwe6SSOjRqwcFj5i-Lfe-35" edge="1">
          <mxGeometry relative="1" as="geometry" />
        </mxCell>
        <mxCell id="dwe6SSOjRqwcFj5i-Lfe-27" value="load/save" style="text;html=1;align=center;verticalAlign=middle;resizable=0;points=[];labelBackgroundColor=#ffffff;fontColor=#000000;" parent="dwe6SSOjRqwcFj5i-Lfe-26" vertex="1" connectable="0">
          <mxGeometry x="-0.237" relative="1" as="geometry">
            <mxPoint x="1" as="offset" />
          </mxGeometry>
        </mxCell>
        <mxCell id="dwe6SSOjRqwcFj5i-Lfe-28" style="edgeStyle=orthogonalEdgeStyle;rounded=0;orthogonalLoop=1;jettySize=auto;html=1;entryX=0.5;entryY=0;entryDx=0;entryDy=0;strokeColor=#000000;fontColor=#000000;exitX=0.875;exitY=0.985;exitDx=0;exitDy=0;exitPerimeter=0;startArrow=classic;startFill=1;" parent="1" source="dwe6SSOjRqwcFj5i-Lfe-33" target="dwe6SSOjRqwcFj5i-Lfe-38" edge="1">
          <mxGeometry relative="1" as="geometry">
            <mxPoint x="769" y="568" as="sourcePoint" />
          </mxGeometry>
        </mxCell>
        <mxCell id="dwe6SSOjRqwcFj5i-Lfe-29" value="load/save" style="text;html=1;align=center;verticalAlign=middle;resizable=0;points=[];labelBackgroundColor=#ffffff;fontColor=#000000;" parent="dwe6SSOjRqwcFj5i-Lfe-28" vertex="1" connectable="0">
          <mxGeometry x="-0.2966" y="-1" relative="1" as="geometry">
            <mxPoint as="offset" />
          </mxGeometry>
        </mxCell>
        <mxCell id="dwe6SSOjRqwcFj5i-Lfe-30" style="edgeStyle=orthogonalEdgeStyle;rounded=0;orthogonalLoop=1;jettySize=auto;html=1;strokeColor=#000000;fontColor=#000000;entryX=0.5;entryY=1;entryDx=0;entryDy=0;" parent="1" source="dwe6SSOjRqwcFj5i-Lfe-33" target="dwe6SSOjRqwcFj5i-Lfe-159" edge="1">
          <mxGeometry relative="1" as="geometry">
            <mxPoint x="670" y="460" as="targetPoint" />
          </mxGeometry>
        </mxCell>
        <mxCell id="dwe6SSOjRqwcFj5i-Lfe-31" style="edgeStyle=orthogonalEdgeStyle;rounded=0;orthogonalLoop=1;jettySize=auto;html=1;strokeColor=#000000;fontColor=#000000;startArrow=classic;startFill=1;" parent="1" edge="1">
          <mxGeometry relative="1" as="geometry">
            <Array as="points">
              <mxPoint x="700" y="590" />
              <mxPoint x="600" y="590" />
            </Array>
            <mxPoint x="700" y="565" as="sourcePoint" />
            <mxPoint x="600" y="710" as="targetPoint" />
          </mxGeometry>
        </mxCell>
        <mxCell id="dwe6SSOjRqwcFj5i-Lfe-32" value="load/save" style="edgeLabel;html=1;align=center;verticalAlign=middle;resizable=0;points=[];" parent="dwe6SSOjRqwcFj5i-Lfe-31" vertex="1" connectable="0">
          <mxGeometry x="-0.2267" y="1" relative="1" as="geometry">
            <mxPoint as="offset" />
          </mxGeometry>
        </mxCell>
        <mxCell id="dwe6SSOjRqwcFj5i-Lfe-33" value="Network store server" style="rounded=1;whiteSpace=wrap;html=1;fillColor=#fff2cc;strokeColor=#d6b656;" parent="1" vertex="1">
          <mxGeometry x="669" y="500" width="120" height="65" as="geometry" />
        </mxCell>
        <mxCell id="dwe6SSOjRqwcFj5i-Lfe-34" style="edgeStyle=orthogonalEdgeStyle;rounded=0;orthogonalLoop=1;jettySize=auto;html=1;exitX=0.5;exitY=1;exitDx=0;exitDy=0;strokeColor=#000000;fontColor=#000000;" parent="1" source="dwe6SSOjRqwcFj5i-Lfe-33" target="dwe6SSOjRqwcFj5i-Lfe-33" edge="1">
          <mxGeometry relative="1" as="geometry" />
        </mxCell>
        <mxCell id="dwe6SSOjRqwcFj5i-Lfe-35" value="Balance adjustment server" style="rounded=1;whiteSpace=wrap;html=1;fillColor=#fff2cc;strokeColor=#d6b656;" parent="1" vertex="1">
          <mxGeometry x="559" y="810" width="120" height="65" as="geometry" />
        </mxCell>
        <mxCell id="dwe6SSOjRqwcFj5i-Lfe-36" value="load contingencies" style="edgeStyle=orthogonalEdgeStyle;rounded=0;orthogonalLoop=1;jettySize=auto;html=1;" parent="1" source="dwe6SSOjRqwcFj5i-Lfe-38" target="dwe6SSOjRqwcFj5i-Lfe-49" edge="1">
          <mxGeometry relative="1" as="geometry" />
        </mxCell>
        <mxCell id="dwe6SSOjRqwcFj5i-Lfe-37" value="store / load results" style="edgeStyle=orthogonalEdgeStyle;rounded=0;orthogonalLoop=1;jettySize=auto;html=1;" parent="1" source="dwe6SSOjRqwcFj5i-Lfe-38" target="dwe6SSOjRqwcFj5i-Lfe-114" edge="1">
          <mxGeometry y="-20" relative="1" as="geometry">
            <Array as="points">
              <mxPoint x="884" y="930" />
            </Array>
            <mxPoint x="20" y="20" as="offset" />
          </mxGeometry>
        </mxCell>
        <mxCell id="dwe6SSOjRqwcFj5i-Lfe-38" value="Security analysis server" style="rounded=1;whiteSpace=wrap;html=1;fillColor=#fff2cc;strokeColor=#d6b656;" parent="1" vertex="1">
          <mxGeometry x="714" y="880" width="120" height="65" as="geometry" />
        </mxCell>
        <mxCell id="dwe6SSOjRqwcFj5i-Lfe-39" style="edgeStyle=orthogonalEdgeStyle;rounded=0;orthogonalLoop=1;jettySize=auto;html=1;entryX=0.25;entryY=1;entryDx=0;entryDy=0;" parent="1" source="dwe6SSOjRqwcFj5i-Lfe-40" target="dwe6SSOjRqwcFj5i-Lfe-156" edge="1">
          <mxGeometry relative="1" as="geometry">
            <Array as="points">
              <mxPoint x="580" y="580" />
              <mxPoint x="950" y="580" />
            </Array>
          </mxGeometry>
        </mxCell>
        <mxCell id="dwe6SSOjRqwcFj5i-Lfe-40" value="Loadflow server" style="rounded=1;whiteSpace=wrap;html=1;fillColor=#fff2cc;strokeColor=#d6b656;" parent="1" vertex="1">
          <mxGeometry x="503" y="710" width="120" height="65" as="geometry" />
        </mxCell>
        <mxCell id="dwe6SSOjRqwcFj5i-Lfe-41" style="edgeStyle=orthogonalEdgeStyle;rounded=0;orthogonalLoop=1;jettySize=auto;html=1;" parent="1" target="dwe6SSOjRqwcFj5i-Lfe-11" edge="1">
          <mxGeometry relative="1" as="geometry">
            <mxPoint x="295" y="565" as="sourcePoint" />
            <mxPoint x="295" y="470" as="targetPoint" />
            <Array as="points">
              <mxPoint x="295" y="500" />
              <mxPoint x="295" y="500" />
            </Array>
          </mxGeometry>
        </mxCell>
        <mxCell id="dwe6SSOjRqwcFj5i-Lfe-42" value="&lt;font&gt;notifications&lt;/font&gt;" style="edgeLabel;html=1;align=center;verticalAlign=middle;resizable=0;points=[];" parent="dwe6SSOjRqwcFj5i-Lfe-41" vertex="1" connectable="0">
          <mxGeometry x="-0.1569" y="3" relative="1" as="geometry">
            <mxPoint as="offset" />
          </mxGeometry>
        </mxCell>
        <mxCell id="dwe6SSOjRqwcFj5i-Lfe-43" style="edgeStyle=orthogonalEdgeStyle;rounded=0;orthogonalLoop=1;jettySize=auto;html=1;" parent="1" source="dwe6SSOjRqwcFj5i-Lfe-46" target="dwe6SSOjRqwcFj5i-Lfe-47" edge="1">
          <mxGeometry relative="1" as="geometry" />
        </mxCell>
        <mxCell id="dwe6SSOjRqwcFj5i-Lfe-44" style="edgeStyle=orthogonalEdgeStyle;rounded=0;orthogonalLoop=1;jettySize=auto;html=1;entryX=0.5;entryY=0;entryDx=0;entryDy=0;startArrow=none;startFill=0;exitX=1;exitY=0.75;exitDx=0;exitDy=0;" parent="1" source="dwe6SSOjRqwcFj5i-Lfe-46" target="dwe6SSOjRqwcFj5i-Lfe-40" edge="1">
          <mxGeometry relative="1" as="geometry" />
        </mxCell>
        <mxCell id="dwe6SSOjRqwcFj5i-Lfe-45" value="&lt;br&gt;run LF on CGM" style="edgeLabel;html=1;align=center;verticalAlign=middle;resizable=0;points=[];" parent="dwe6SSOjRqwcFj5i-Lfe-44" vertex="1" connectable="0">
          <mxGeometry x="0.0753" y="-4" relative="1" as="geometry">
            <mxPoint x="49" y="19.71" as="offset" />
          </mxGeometry>
        </mxCell>
        <mxCell id="dwe6SSOjRqwcFj5i-Lfe-46" value="Merge orchestration server" style="rounded=1;whiteSpace=wrap;html=1;fillColor=#fff2cc;strokeColor=#d6b656;" parent="1" vertex="1">
          <mxGeometry x="209" y="565" width="120" height="65" as="geometry" />
        </mxCell>
        <mxCell id="dwe6SSOjRqwcFj5i-Lfe-47" value="PostgreSQL" style="shape=cylinder;whiteSpace=wrap;html=1;boundedLbl=1;backgroundOutline=1;fillColor=#dae8fc;strokeColor=#6c8ebf;" parent="1" vertex="1">
          <mxGeometry x="69" y="557.5" width="90" height="80" as="geometry" />
        </mxCell>
        <mxCell id="dwe6SSOjRqwcFj5i-Lfe-48" style="edgeStyle=orthogonalEdgeStyle;rounded=0;orthogonalLoop=1;jettySize=auto;html=1;entryX=1;entryY=0.5;entryDx=0;entryDy=0;" parent="1" source="dwe6SSOjRqwcFj5i-Lfe-49" target="dwe6SSOjRqwcFj5i-Lfe-50" edge="1">
          <mxGeometry relative="1" as="geometry" />
        </mxCell>
        <mxCell id="dwe6SSOjRqwcFj5i-Lfe-49" value="Actions server" style="rounded=1;whiteSpace=wrap;html=1;fillColor=#fff2cc;strokeColor=#d6b656;" parent="1" vertex="1">
          <mxGeometry x="636.5" y="1057.5" width="120" height="65" as="geometry" />
        </mxCell>
        <mxCell id="dwe6SSOjRqwcFj5i-Lfe-50" value="PostgreSQL" style="shape=cylinder;whiteSpace=wrap;html=1;boundedLbl=1;backgroundOutline=1;fillColor=#dae8fc;strokeColor=#6c8ebf;" parent="1" vertex="1">
          <mxGeometry x="481.5" y="1050" width="90" height="80" as="geometry" />
        </mxCell>
        <mxCell id="dwe6SSOjRqwcFj5i-Lfe-51" style="edgeStyle=orthogonalEdgeStyle;rounded=0;orthogonalLoop=1;jettySize=auto;html=1;exitX=0.75;exitY=0;exitDx=0;exitDy=0;entryX=0;entryY=0.75;entryDx=0;entryDy=0;startArrow=classic;startFill=1;" parent="1" source="dwe6SSOjRqwcFj5i-Lfe-53" target="dwe6SSOjRqwcFj5i-Lfe-33" edge="1">
          <mxGeometry relative="1" as="geometry" />
        </mxCell>
        <mxCell id="dwe6SSOjRqwcFj5i-Lfe-52" value="load/save" style="edgeLabel;html=1;align=center;verticalAlign=middle;resizable=0;points=[];" parent="dwe6SSOjRqwcFj5i-Lfe-51" vertex="1" connectable="0">
          <mxGeometry x="0.3388" y="-3" relative="1" as="geometry">
            <mxPoint as="offset" />
          </mxGeometry>
        </mxCell>
        <mxCell id="dwe6SSOjRqwcFj5i-Lfe-53" value="Case validation server" style="rounded=1;whiteSpace=wrap;html=1;fillColor=#fff2cc;strokeColor=#d6b656;" parent="1" vertex="1">
          <mxGeometry x="353" y="710" width="120" height="65" as="geometry" />
        </mxCell>
        <mxCell id="dwe6SSOjRqwcFj5i-Lfe-54" style="edgeStyle=orthogonalEdgeStyle;rounded=0;orthogonalLoop=1;jettySize=auto;html=1;entryX=0.225;entryY=0.05;entryDx=0;entryDy=0;startArrow=none;startFill=0;strokeColor=#000000;fontColor=#000000;exitX=0.25;exitY=1;exitDx=0;exitDy=0;entryPerimeter=0;" parent="1" source="dwe6SSOjRqwcFj5i-Lfe-56" target="dwe6SSOjRqwcFj5i-Lfe-107" edge="1">
          <mxGeometry relative="1" as="geometry">
            <mxPoint x="149" y="175" as="targetPoint" />
            <Array as="points">
              <mxPoint x="220" y="1115" />
              <mxPoint x="220" y="1260" />
              <mxPoint x="350" y="1260" />
            </Array>
          </mxGeometry>
        </mxCell>
        <mxCell id="dwe6SSOjRqwcFj5i-Lfe-55" value="Websocket" style="edgeLabel;html=1;align=center;verticalAlign=middle;resizable=0;points=[];fontColor=#000000;" parent="dwe6SSOjRqwcFj5i-Lfe-54" vertex="1" connectable="0">
          <mxGeometry x="0.2545" y="1" relative="1" as="geometry">
            <mxPoint as="offset" />
          </mxGeometry>
        </mxCell>
        <mxCell id="dwe6SSOjRqwcFj5i-Lfe-56" value="Merge notification server" style="rounded=1;whiteSpace=wrap;html=1;fillColor=#fff2cc;strokeColor=#d6b656;" parent="1" vertex="1">
          <mxGeometry x="120" y="1080" width="120" height="65" as="geometry" />
        </mxCell>
        <mxCell id="dwe6SSOjRqwcFj5i-Lfe-57" style="edgeStyle=orthogonalEdgeStyle;rounded=0;orthogonalLoop=1;jettySize=auto;html=1;startArrow=none;startFill=0;strokeColor=#000000;fontColor=#000000;exitX=0.75;exitY=0;exitDx=0;exitDy=0;" parent="1" source="dwe6SSOjRqwcFj5i-Lfe-60" target="dwe6SSOjRqwcFj5i-Lfe-158" edge="1">
          <mxGeometry relative="1" as="geometry">
            <mxPoint x="824" y="90" as="targetPoint" />
            <Array as="points">
              <mxPoint x="662" y="130" />
              <mxPoint x="747" y="130" />
            </Array>
          </mxGeometry>
        </mxCell>
        <mxCell id="dwe6SSOjRqwcFj5i-Lfe-58" style="edgeStyle=orthogonalEdgeStyle;rounded=0;orthogonalLoop=1;jettySize=auto;html=1;entryX=1;entryY=0.5;entryDx=0;entryDy=0;startArrow=none;startFill=0;strokeColor=#000000;fontColor=#000000;exitX=0.5;exitY=0;exitDx=0;exitDy=0;" parent="1" source="dwe6SSOjRqwcFj5i-Lfe-60" target="dwe6SSOjRqwcFj5i-Lfe-12" edge="1">
          <mxGeometry relative="1" as="geometry" />
        </mxCell>
        <mxCell id="dwe6SSOjRqwcFj5i-Lfe-59" value="polling" style="edgeLabel;html=1;align=center;verticalAlign=middle;resizable=0;points=[];fontColor=#000000;" parent="dwe6SSOjRqwcFj5i-Lfe-58" vertex="1" connectable="0">
          <mxGeometry x="-0.4223" y="2" relative="1" as="geometry">
            <mxPoint x="1" as="offset" />
          </mxGeometry>
        </mxCell>
        <mxCell id="dwe6SSOjRqwcFj5i-Lfe-60" value="&lt;div&gt;CGMES assembling job&lt;br&gt;&lt;/div&gt;&lt;div&gt;(k8s cron)&lt;/div&gt;" style="rounded=1;whiteSpace=wrap;html=1;fillColor=#fff2cc;strokeColor=#d6b656;" parent="1" vertex="1">
          <mxGeometry x="571.5" y="150" width="120" height="60" as="geometry" />
        </mxCell>
        <mxCell id="dwe6SSOjRqwcFj5i-Lfe-61" style="edgeStyle=orthogonalEdgeStyle;rounded=0;orthogonalLoop=1;jettySize=auto;html=1;entryX=0.5;entryY=0;entryDx=0;entryDy=0;" parent="1" source="dwe6SSOjRqwcFj5i-Lfe-79" target="dwe6SSOjRqwcFj5i-Lfe-124" edge="1">
          <mxGeometry relative="1" as="geometry">
            <Array as="points">
              <mxPoint x="1316" y="860" />
            </Array>
          </mxGeometry>
        </mxCell>
        <mxCell id="dwe6SSOjRqwcFj5i-Lfe-62" style="edgeStyle=orthogonalEdgeStyle;rounded=0;orthogonalLoop=1;jettySize=auto;html=1;entryX=0.5;entryY=1;entryDx=0;entryDy=0;exitX=0.5;exitY=0;exitDx=0;exitDy=0;" parent="1" source="dwe6SSOjRqwcFj5i-Lfe-79" target="dwe6SSOjRqwcFj5i-Lfe-81" edge="1">
          <mxGeometry relative="1" as="geometry" />
        </mxCell>
        <mxCell id="dwe6SSOjRqwcFj5i-Lfe-63" style="edgeStyle=orthogonalEdgeStyle;rounded=0;orthogonalLoop=1;jettySize=auto;html=1;entryX=0.5;entryY=1;entryDx=0;entryDy=0;" parent="1" source="dwe6SSOjRqwcFj5i-Lfe-79" target="dwe6SSOjRqwcFj5i-Lfe-92" edge="1">
          <mxGeometry relative="1" as="geometry" />
        </mxCell>
        <mxCell id="dwe6SSOjRqwcFj5i-Lfe-64" style="edgeStyle=orthogonalEdgeStyle;rounded=0;orthogonalLoop=1;jettySize=auto;html=1;" parent="1" source="dwe6SSOjRqwcFj5i-Lfe-79" target="dwe6SSOjRqwcFj5i-Lfe-90" edge="1">
          <mxGeometry relative="1" as="geometry" />
        </mxCell>
        <mxCell id="dwe6SSOjRqwcFj5i-Lfe-65" style="edgeStyle=orthogonalEdgeStyle;rounded=0;orthogonalLoop=1;jettySize=auto;html=1;exitX=0.5;exitY=0;exitDx=0;exitDy=0;" parent="1" source="dwe6SSOjRqwcFj5i-Lfe-79" target="dwe6SSOjRqwcFj5i-Lfe-86" edge="1">
          <mxGeometry relative="1" as="geometry" />
        </mxCell>
        <mxCell id="dwe6SSOjRqwcFj5i-Lfe-66" style="edgeStyle=orthogonalEdgeStyle;rounded=0;orthogonalLoop=1;jettySize=auto;html=1;exitX=0.5;exitY=0;exitDx=0;exitDy=0;" parent="1" source="dwe6SSOjRqwcFj5i-Lfe-79" target="dwe6SSOjRqwcFj5i-Lfe-95" edge="1">
          <mxGeometry relative="1" as="geometry" />
        </mxCell>
        <mxCell id="dwe6SSOjRqwcFj5i-Lfe-67" style="edgeStyle=orthogonalEdgeStyle;rounded=0;orthogonalLoop=1;jettySize=auto;html=1;entryX=1;entryY=0.75;entryDx=0;entryDy=0;" parent="1" source="dwe6SSOjRqwcFj5i-Lfe-79" target="dwe6SSOjRqwcFj5i-Lfe-40" edge="1">
          <mxGeometry relative="1" as="geometry">
            <Array as="points">
              <mxPoint x="1080" y="759" />
            </Array>
          </mxGeometry>
        </mxCell>
        <mxCell id="dwe6SSOjRqwcFj5i-Lfe-68" style="edgeStyle=orthogonalEdgeStyle;rounded=0;orthogonalLoop=1;jettySize=auto;html=1;entryX=1;entryY=0.5;entryDx=0;entryDy=0;" parent="1" source="dwe6SSOjRqwcFj5i-Lfe-79" target="dwe6SSOjRqwcFj5i-Lfe-38" edge="1">
          <mxGeometry relative="1" as="geometry" />
        </mxCell>
        <mxCell id="dwe6SSOjRqwcFj5i-Lfe-69" value="run / get resuts" style="edgeLabel;html=1;align=center;verticalAlign=middle;resizable=0;points=[];" parent="dwe6SSOjRqwcFj5i-Lfe-68" vertex="1" connectable="0">
          <mxGeometry x="-0.2909" y="-2" relative="1" as="geometry">
            <mxPoint as="offset" />
          </mxGeometry>
        </mxCell>
        <mxCell id="dwe6SSOjRqwcFj5i-Lfe-70" style="edgeStyle=orthogonalEdgeStyle;rounded=0;orthogonalLoop=1;jettySize=auto;html=1;entryX=1;entryY=0.5;entryDx=0;entryDy=0;" parent="1" source="dwe6SSOjRqwcFj5i-Lfe-79" target="dwe6SSOjRqwcFj5i-Lfe-49" edge="1">
          <mxGeometry relative="1" as="geometry">
            <Array as="points">
              <mxPoint x="970" y="870" />
              <mxPoint x="970" y="1090" />
            </Array>
          </mxGeometry>
        </mxCell>
        <mxCell id="dwe6SSOjRqwcFj5i-Lfe-71" style="edgeStyle=orthogonalEdgeStyle;rounded=0;orthogonalLoop=1;jettySize=auto;html=1;" parent="1" source="dwe6SSOjRqwcFj5i-Lfe-79" target="dwe6SSOjRqwcFj5i-Lfe-120" edge="1">
          <mxGeometry relative="1" as="geometry">
            <Array as="points">
              <mxPoint x="1120" y="925" />
              <mxPoint x="1176" y="925" />
            </Array>
          </mxGeometry>
        </mxCell>
        <mxCell id="dwe6SSOjRqwcFj5i-Lfe-72" style="edgeStyle=orthogonalEdgeStyle;rounded=0;orthogonalLoop=1;jettySize=auto;html=1;exitX=0;exitY=0;exitDx=0;exitDy=0;entryX=0.979;entryY=0.926;entryDx=0;entryDy=0;entryPerimeter=0;" parent="1" source="dwe6SSOjRqwcFj5i-Lfe-79" target="dwe6SSOjRqwcFj5i-Lfe-33" edge="1">
          <mxGeometry relative="1" as="geometry">
            <Array as="points">
              <mxPoint x="830" y="830" />
              <mxPoint x="830" y="560" />
            </Array>
            <mxPoint x="790" y="560" as="targetPoint" />
          </mxGeometry>
        </mxCell>
        <mxCell id="dwe6SSOjRqwcFj5i-Lfe-73" style="edgeStyle=orthogonalEdgeStyle;rounded=0;orthogonalLoop=1;jettySize=auto;html=1;" parent="1" source="dwe6SSOjRqwcFj5i-Lfe-79" edge="1">
          <mxGeometry relative="1" as="geometry">
            <mxPoint x="970" y="449" as="targetPoint" />
            <Array as="points">
              <mxPoint x="1090" y="810" />
              <mxPoint x="970" y="810" />
              <mxPoint x="970" y="449" />
            </Array>
          </mxGeometry>
        </mxCell>
        <mxCell id="dwe6SSOjRqwcFj5i-Lfe-74" style="edgeStyle=orthogonalEdgeStyle;rounded=0;orthogonalLoop=1;jettySize=auto;html=1;" parent="1" source="dwe6SSOjRqwcFj5i-Lfe-79" target="dwe6SSOjRqwcFj5i-Lfe-25" edge="1">
          <mxGeometry relative="1" as="geometry">
            <Array as="points">
              <mxPoint x="800" y="850" />
            </Array>
          </mxGeometry>
        </mxCell>
        <mxCell id="dwe6SSOjRqwcFj5i-Lfe-75" style="edgeStyle=orthogonalEdgeStyle;rounded=0;orthogonalLoop=1;jettySize=auto;html=1;exitX=1;exitY=0.75;exitDx=0;exitDy=0;entryX=0;entryY=0.5;entryDx=0;entryDy=0;" parent="1" source="dwe6SSOjRqwcFj5i-Lfe-79" target="dwe6SSOjRqwcFj5i-Lfe-154" edge="1">
          <mxGeometry relative="1" as="geometry">
            <Array as="points">
              <mxPoint x="1390" y="875" />
              <mxPoint x="1390" y="1230" />
            </Array>
          </mxGeometry>
        </mxCell>
        <mxCell id="dwe6SSOjRqwcFj5i-Lfe-76" value="&lt;div&gt;run / get results&lt;/div&gt;" style="edgeLabel;html=1;align=center;verticalAlign=middle;resizable=0;points=[];" parent="dwe6SSOjRqwcFj5i-Lfe-75" vertex="1" connectable="0">
          <mxGeometry x="0.1486" y="2" relative="1" as="geometry">
            <mxPoint as="offset" />
          </mxGeometry>
        </mxCell>
        <mxCell id="dwe6SSOjRqwcFj5i-Lfe-77" style="edgeStyle=orthogonalEdgeStyle;rounded=0;orthogonalLoop=1;jettySize=auto;html=1;exitX=0.966;exitY=0.904;exitDx=0;exitDy=0;entryX=0.5;entryY=0;entryDx=0;entryDy=0;exitPerimeter=0;" parent="1" source="dwe6SSOjRqwcFj5i-Lfe-79" target="dwe6SSOjRqwcFj5i-Lfe-193" edge="1">
          <mxGeometry relative="1" as="geometry">
            <Array as="points">
              <mxPoint x="1157" y="890" />
              <mxPoint x="1250" y="890" />
              <mxPoint x="1250" y="990" />
              <mxPoint x="1714" y="990" />
            </Array>
          </mxGeometry>
        </mxCell>
        <mxCell id="dwe6SSOjRqwcFj5i-Lfe-78" value="&lt;div&gt;run / get results&lt;/div&gt;" style="edgeLabel;html=1;align=center;verticalAlign=middle;resizable=0;points=[];" parent="dwe6SSOjRqwcFj5i-Lfe-77" vertex="1" connectable="0">
          <mxGeometry x="0.7173" y="1" relative="1" as="geometry">
            <mxPoint y="1" as="offset" />
          </mxGeometry>
        </mxCell>
        <mxCell id="dwe6SSOjRqwcFj5i-Lfe-79" value="Study server" style="rounded=1;whiteSpace=wrap;html=1;fillColor=#fff2cc;strokeColor=#d6b656;" parent="1" vertex="1">
          <mxGeometry x="1041" y="830" width="120" height="60" as="geometry" />
        </mxCell>
        <mxCell id="dwe6SSOjRqwcFj5i-Lfe-80" style="edgeStyle=orthogonalEdgeStyle;rounded=0;orthogonalLoop=1;jettySize=auto;html=1;entryX=1;entryY=0.5;entryDx=0;entryDy=0;exitX=0.5;exitY=0;exitDx=0;exitDy=0;" parent="1" source="dwe6SSOjRqwcFj5i-Lfe-81" target="dwe6SSOjRqwcFj5i-Lfe-33" edge="1">
          <mxGeometry relative="1" as="geometry" />
        </mxCell>
        <mxCell id="dwe6SSOjRqwcFj5i-Lfe-81" value="Single line diagram server" style="rounded=1;whiteSpace=wrap;html=1;fillColor=#fff2cc;strokeColor=#d6b656;" parent="1" vertex="1">
          <mxGeometry x="839" y="600" width="120" height="60" as="geometry" />
        </mxCell>
        <mxCell id="dwe6SSOjRqwcFj5i-Lfe-82" style="edgeStyle=orthogonalEdgeStyle;rounded=0;orthogonalLoop=1;jettySize=auto;html=1;entryX=1;entryY=0.5;entryDx=0;entryDy=0;exitX=0.5;exitY=0;exitDx=0;exitDy=0;" parent="1" source="dwe6SSOjRqwcFj5i-Lfe-86" target="dwe6SSOjRqwcFj5i-Lfe-33" edge="1">
          <mxGeometry relative="1" as="geometry" />
        </mxCell>
        <mxCell id="dwe6SSOjRqwcFj5i-Lfe-83" style="edgeStyle=orthogonalEdgeStyle;rounded=0;orthogonalLoop=1;jettySize=auto;html=1;entryX=0.75;entryY=1;entryDx=0;entryDy=0;exitX=0.308;exitY=0;exitDx=0;exitDy=0;exitPerimeter=0;" parent="1" source="dwe6SSOjRqwcFj5i-Lfe-86" target="dwe6SSOjRqwcFj5i-Lfe-7" edge="1">
          <mxGeometry relative="1" as="geometry">
            <Array as="points">
              <mxPoint x="1306" y="370" />
              <mxPoint x="508" y="370" />
            </Array>
          </mxGeometry>
        </mxCell>
        <mxCell id="dwe6SSOjRqwcFj5i-Lfe-84" style="edgeStyle=orthogonalEdgeStyle;rounded=0;orthogonalLoop=1;jettySize=auto;html=1;entryX=0.5;entryY=1;entryDx=0;entryDy=0;" parent="1" source="dwe6SSOjRqwcFj5i-Lfe-86" target="dwe6SSOjRqwcFj5i-Lfe-156" edge="1">
          <mxGeometry relative="1" as="geometry">
            <Array as="points">
              <mxPoint x="1280" y="500" />
              <mxPoint x="980" y="500" />
            </Array>
          </mxGeometry>
        </mxCell>
        <mxCell id="dwe6SSOjRqwcFj5i-Lfe-85" style="edgeStyle=orthogonalEdgeStyle;rounded=0;orthogonalLoop=1;jettySize=auto;html=1;entryX=1;entryY=0.7;entryDx=0;entryDy=0;" parent="1" source="dwe6SSOjRqwcFj5i-Lfe-86" target="dwe6SSOjRqwcFj5i-Lfe-25" edge="1">
          <mxGeometry relative="1" as="geometry">
            <Array as="points">
              <mxPoint x="1316" y="336" />
            </Array>
          </mxGeometry>
        </mxCell>
        <mxCell id="dwe6SSOjRqwcFj5i-Lfe-86" value="Network conversion server" style="rounded=1;whiteSpace=wrap;html=1;fillColor=#fff2cc;strokeColor=#d6b656;" parent="1" vertex="1">
          <mxGeometry x="1256" y="600" width="120" height="60" as="geometry" />
        </mxCell>
        <mxCell id="dwe6SSOjRqwcFj5i-Lfe-87" style="edgeStyle=orthogonalEdgeStyle;rounded=0;orthogonalLoop=1;jettySize=auto;html=1;entryX=1;entryY=0.5;entryDx=0;entryDy=0;exitX=0.5;exitY=0;exitDx=0;exitDy=0;" parent="1" source="dwe6SSOjRqwcFj5i-Lfe-90" target="dwe6SSOjRqwcFj5i-Lfe-33" edge="1">
          <mxGeometry relative="1" as="geometry" />
        </mxCell>
        <mxCell id="dwe6SSOjRqwcFj5i-Lfe-88" style="edgeStyle=orthogonalEdgeStyle;rounded=0;orthogonalLoop=1;jettySize=auto;html=1;entryX=0.5;entryY=1;entryDx=0;entryDy=0;" parent="1" source="dwe6SSOjRqwcFj5i-Lfe-90" target="dwe6SSOjRqwcFj5i-Lfe-127" edge="1">
          <mxGeometry relative="1" as="geometry">
            <Array as="points">
              <mxPoint x="1200" y="510" />
              <mxPoint x="1180" y="510" />
            </Array>
          </mxGeometry>
        </mxCell>
        <mxCell id="dwe6SSOjRqwcFj5i-Lfe-89" style="edgeStyle=orthogonalEdgeStyle;rounded=0;orthogonalLoop=1;jettySize=auto;html=1;entryX=1.008;entryY=0.625;entryDx=0;entryDy=0;entryPerimeter=0;" parent="1" source="dwe6SSOjRqwcFj5i-Lfe-90" target="dwe6SSOjRqwcFj5i-Lfe-25" edge="1">
          <mxGeometry relative="1" as="geometry">
            <Array as="points">
              <mxPoint x="1110" y="630" />
              <mxPoint x="1110" y="330" />
            </Array>
          </mxGeometry>
        </mxCell>
        <mxCell id="dwe6SSOjRqwcFj5i-Lfe-90" value="Network modification server" style="rounded=1;whiteSpace=wrap;html=1;fillColor=#fff2cc;strokeColor=#d6b656;" parent="1" vertex="1">
          <mxGeometry x="1116" y="600" width="120" height="60" as="geometry" />
        </mxCell>
        <mxCell id="dwe6SSOjRqwcFj5i-Lfe-91" style="edgeStyle=orthogonalEdgeStyle;rounded=0;orthogonalLoop=1;jettySize=auto;html=1;entryX=1;entryY=0.5;entryDx=0;entryDy=0;exitX=0.5;exitY=0;exitDx=0;exitDy=0;" parent="1" source="dwe6SSOjRqwcFj5i-Lfe-92" target="dwe6SSOjRqwcFj5i-Lfe-33" edge="1">
          <mxGeometry relative="1" as="geometry" />
        </mxCell>
        <mxCell id="dwe6SSOjRqwcFj5i-Lfe-92" value="Network map server" style="rounded=1;whiteSpace=wrap;html=1;fillColor=#fff2cc;strokeColor=#d6b656;" parent="1" vertex="1">
          <mxGeometry x="979" y="600" width="120" height="60" as="geometry" />
        </mxCell>
        <mxCell id="dwe6SSOjRqwcFj5i-Lfe-93" style="edgeStyle=orthogonalEdgeStyle;rounded=0;orthogonalLoop=1;jettySize=auto;html=1;exitX=0.5;exitY=0;exitDx=0;exitDy=0;" parent="1" edge="1">
          <mxGeometry relative="1" as="geometry">
            <mxPoint x="789" y="532" as="targetPoint" />
            <mxPoint x="1469" y="602" as="sourcePoint" />
            <Array as="points">
              <mxPoint x="1469" y="532" />
            </Array>
          </mxGeometry>
        </mxCell>
        <mxCell id="dwe6SSOjRqwcFj5i-Lfe-94" style="edgeStyle=orthogonalEdgeStyle;rounded=0;orthogonalLoop=1;jettySize=auto;html=1;" parent="1" source="dwe6SSOjRqwcFj5i-Lfe-95" target="dwe6SSOjRqwcFj5i-Lfe-97" edge="1">
          <mxGeometry relative="1" as="geometry" />
        </mxCell>
        <mxCell id="dwe6SSOjRqwcFj5i-Lfe-95" value="Geo data server" style="rounded=1;whiteSpace=wrap;html=1;fillColor=#fff2cc;strokeColor=#d6b656;" parent="1" vertex="1">
          <mxGeometry x="1396" y="600" width="120" height="60" as="geometry" />
        </mxCell>
        <mxCell id="dwe6SSOjRqwcFj5i-Lfe-96" value="" style="edgeStyle=orthogonalEdgeStyle;rounded=0;orthogonalLoop=1;jettySize=auto;html=1;" parent="1" source="dwe6SSOjRqwcFj5i-Lfe-97" target="dwe6SSOjRqwcFj5i-Lfe-95" edge="1">
          <mxGeometry relative="1" as="geometry" />
        </mxCell>
        <mxCell id="dwe6SSOjRqwcFj5i-Lfe-97" value="PostgreSQL" style="shape=cylinder;whiteSpace=wrap;html=1;boundedLbl=1;backgroundOutline=1;fillColor=#dae8fc;strokeColor=#6c8ebf;" parent="1" vertex="1">
          <mxGeometry x="1556" y="590" width="80" height="80" as="geometry" />
        </mxCell>
        <mxCell id="dwe6SSOjRqwcFj5i-Lfe-98" style="edgeStyle=orthogonalEdgeStyle;rounded=0;orthogonalLoop=1;jettySize=auto;html=1;entryX=0.25;entryY=0;entryDx=0;entryDy=0;" parent="1" source="dwe6SSOjRqwcFj5i-Lfe-99" target="dwe6SSOjRqwcFj5i-Lfe-95" edge="1">
          <mxGeometry relative="1" as="geometry" />
        </mxCell>
        <mxCell id="dwe6SSOjRqwcFj5i-Lfe-99" value="CGMES GL server" style="rounded=1;whiteSpace=wrap;html=1;fillColor=#fff2cc;strokeColor=#d6b656;" parent="1" vertex="1">
          <mxGeometry x="1320" y="180" width="120" height="60" as="geometry" />
        </mxCell>
        <mxCell id="dwe6SSOjRqwcFj5i-Lfe-100" style="edgeStyle=orthogonalEdgeStyle;rounded=0;orthogonalLoop=1;jettySize=auto;html=1;entryX=0.75;entryY=0;entryDx=0;entryDy=0;exitX=0.5;exitY=1;exitDx=0;exitDy=0;" parent="1" source="dwe6SSOjRqwcFj5i-Lfe-101" target="dwe6SSOjRqwcFj5i-Lfe-95" edge="1">
          <mxGeometry relative="1" as="geometry">
            <Array as="points">
              <mxPoint x="1380" y="150" />
              <mxPoint x="1470" y="150" />
              <mxPoint x="1470" y="360" />
              <mxPoint x="1486" y="360" />
            </Array>
          </mxGeometry>
        </mxCell>
        <mxCell id="dwe6SSOjRqwcFj5i-Lfe-101" value="ODRE server" style="rounded=1;whiteSpace=wrap;html=1;fillColor=#fff2cc;strokeColor=#d6b656;" parent="1" vertex="1">
          <mxGeometry x="1320" y="60" width="120" height="60" as="geometry" />
        </mxCell>
        <mxCell id="dwe6SSOjRqwcFj5i-Lfe-102" style="edgeStyle=orthogonalEdgeStyle;rounded=0;orthogonalLoop=1;jettySize=auto;html=1;exitX=0;exitY=0.5;exitDx=0;exitDy=0;" parent="1" source="dwe6SSOjRqwcFj5i-Lfe-104" target="dwe6SSOjRqwcFj5i-Lfe-99" edge="1">
          <mxGeometry relative="1" as="geometry">
            <Array as="points">
              <mxPoint x="1490" y="150" />
              <mxPoint x="1490" y="210" />
            </Array>
          </mxGeometry>
        </mxCell>
        <mxCell id="dwe6SSOjRqwcFj5i-Lfe-103" style="edgeStyle=orthogonalEdgeStyle;rounded=0;orthogonalLoop=1;jettySize=auto;html=1;entryX=1;entryY=0.5;entryDx=0;entryDy=0;exitX=0;exitY=0.5;exitDx=0;exitDy=0;" parent="1" source="dwe6SSOjRqwcFj5i-Lfe-104" target="dwe6SSOjRqwcFj5i-Lfe-101" edge="1">
          <mxGeometry relative="1" as="geometry">
            <Array as="points">
              <mxPoint x="1490" y="150" />
              <mxPoint x="1490" y="90" />
            </Array>
          </mxGeometry>
        </mxCell>
        <mxCell id="dwe6SSOjRqwcFj5i-Lfe-104" value="&lt;div&gt;Geo data app &lt;br&gt;&lt;/div&gt;&lt;div&gt;(UI)&lt;/div&gt;" style="ellipse;whiteSpace=wrap;html=1;" parent="1" vertex="1">
          <mxGeometry x="1516" y="110" width="120" height="80" as="geometry" />
        </mxCell>
        <mxCell id="dwe6SSOjRqwcFj5i-Lfe-105" style="edgeStyle=orthogonalEdgeStyle;rounded=0;orthogonalLoop=1;jettySize=auto;html=1;entryX=0.5;entryY=1;entryDx=0;entryDy=0;" parent="1" source="dwe6SSOjRqwcFj5i-Lfe-107" target="dwe6SSOjRqwcFj5i-Lfe-46" edge="1">
          <mxGeometry relative="1" as="geometry">
            <Array as="points">
              <mxPoint x="383" y="960" />
              <mxPoint x="269" y="960" />
            </Array>
          </mxGeometry>
        </mxCell>
        <mxCell id="dwe6SSOjRqwcFj5i-Lfe-106" style="edgeStyle=orthogonalEdgeStyle;rounded=0;orthogonalLoop=1;jettySize=auto;html=1;entryX=0;entryY=0.25;entryDx=0;entryDy=0;" parent="1" source="dwe6SSOjRqwcFj5i-Lfe-107" target="dwe6SSOjRqwcFj5i-Lfe-117" edge="1">
          <mxGeometry relative="1" as="geometry">
            <Array as="points">
              <mxPoint x="400" y="1260" />
              <mxPoint x="590" y="1260" />
              <mxPoint x="590" y="1183" />
            </Array>
          </mxGeometry>
        </mxCell>
        <mxCell id="dwe6SSOjRqwcFj5i-Lfe-107" value="GridMerge" style="ellipse;whiteSpace=wrap;html=1;fillColor=#ffe6cc;strokeColor=#d79b00;" parent="1" vertex="1">
          <mxGeometry x="323" y="1390" width="120" height="80" as="geometry" />
        </mxCell>
        <mxCell id="dwe6SSOjRqwcFj5i-Lfe-108" value="File system" style="shape=cylinder;whiteSpace=wrap;html=1;boundedLbl=1;backgroundOutline=1;fillColor=#dae8fc;strokeColor=#6c8ebf;" parent="1" vertex="1">
          <mxGeometry x="260" y="70" width="93" height="80" as="geometry" />
        </mxCell>
        <mxCell id="dwe6SSOjRqwcFj5i-Lfe-109" style="edgeStyle=orthogonalEdgeStyle;rounded=0;orthogonalLoop=1;jettySize=auto;html=1;entryX=1;entryY=0.5;entryDx=0;entryDy=0;" parent="1" source="dwe6SSOjRqwcFj5i-Lfe-110" target="dwe6SSOjRqwcFj5i-Lfe-25" edge="1">
          <mxGeometry relative="1" as="geometry" />
        </mxCell>
        <mxCell id="dwe6SSOjRqwcFj5i-Lfe-110" value="&lt;div&gt;Kibana&lt;br&gt;&lt;/div&gt;&lt;div&gt;(UI)&lt;/div&gt;" style="ellipse;whiteSpace=wrap;html=1;fillColor=#dae8fc;strokeColor=#6c8ebf;" parent="1" vertex="1">
          <mxGeometry x="930" y="210" width="120" height="80" as="geometry" />
        </mxCell>
        <mxCell id="dwe6SSOjRqwcFj5i-Lfe-111" style="edgeStyle=orthogonalEdgeStyle;rounded=0;orthogonalLoop=1;jettySize=auto;html=1;entryX=1;entryY=0.5;entryDx=0;entryDy=0;exitX=0.442;exitY=0.025;exitDx=0;exitDy=0;exitPerimeter=0;" parent="1" source="dwe6SSOjRqwcFj5i-Lfe-113" target="dwe6SSOjRqwcFj5i-Lfe-117" edge="1">
          <mxGeometry relative="1" as="geometry">
            <Array as="points">
              <mxPoint x="1094" y="1198" />
            </Array>
          </mxGeometry>
        </mxCell>
        <mxCell id="dwe6SSOjRqwcFj5i-Lfe-112" style="edgeStyle=orthogonalEdgeStyle;rounded=0;orthogonalLoop=1;jettySize=auto;html=1;entryX=0.5;entryY=1;entryDx=0;entryDy=0;" parent="1" source="dwe6SSOjRqwcFj5i-Lfe-113" target="dwe6SSOjRqwcFj5i-Lfe-79" edge="1">
          <mxGeometry relative="1" as="geometry" />
        </mxCell>
        <mxCell id="dwe6SSOjRqwcFj5i-Lfe-113" value="GridStudy" style="ellipse;whiteSpace=wrap;html=1;fillColor=#ffe6cc;strokeColor=#d79b00;" parent="1" vertex="1">
          <mxGeometry x="1046" y="1540" width="120" height="80" as="geometry" />
        </mxCell>
        <mxCell id="dwe6SSOjRqwcFj5i-Lfe-114" value="PostgreSQL" style="shape=cylinder;whiteSpace=wrap;html=1;boundedLbl=1;backgroundOutline=1;fillColor=#dae8fc;strokeColor=#6c8ebf;" parent="1" vertex="1">
          <mxGeometry x="839" y="980" width="90" height="80" as="geometry" />
        </mxCell>
        <mxCell id="dwe6SSOjRqwcFj5i-Lfe-115" style="edgeStyle=orthogonalEdgeStyle;rounded=0;orthogonalLoop=1;jettySize=auto;html=1;" parent="1" source="dwe6SSOjRqwcFj5i-Lfe-117" target="dwe6SSOjRqwcFj5i-Lfe-143" edge="1">
          <mxGeometry relative="1" as="geometry" />
        </mxCell>
        <mxCell id="dwe6SSOjRqwcFj5i-Lfe-116" style="edgeStyle=orthogonalEdgeStyle;rounded=0;orthogonalLoop=1;jettySize=auto;html=1;entryX=1;entryY=0.7;entryDx=0;entryDy=0;" parent="1" source="dwe6SSOjRqwcFj5i-Lfe-117" target="dwe6SSOjRqwcFj5i-Lfe-50" edge="1">
          <mxGeometry relative="1" as="geometry">
            <Array as="points">
              <mxPoint x="919" y="1150" />
              <mxPoint x="715" y="1150" />
              <mxPoint x="715" y="1140" />
              <mxPoint x="600" y="1140" />
              <mxPoint x="600" y="1106" />
            </Array>
          </mxGeometry>
        </mxCell>
        <mxCell id="dwe6SSOjRqwcFj5i-Lfe-117" value="Config server" style="rounded=1;whiteSpace=wrap;html=1;fillColor=#fff2cc;strokeColor=#d6b656;" parent="1" vertex="1">
          <mxGeometry x="859" y="1168" width="120" height="60" as="geometry" />
        </mxCell>
        <mxCell id="dwe6SSOjRqwcFj5i-Lfe-118" style="edgeStyle=orthogonalEdgeStyle;rounded=0;orthogonalLoop=1;jettySize=auto;html=1;entryX=1;entryY=0.5;entryDx=0;entryDy=0;" parent="1" source="dwe6SSOjRqwcFj5i-Lfe-120" target="dwe6SSOjRqwcFj5i-Lfe-113" edge="1">
          <mxGeometry relative="1" as="geometry">
            <Array as="points">
              <mxPoint x="1176" y="1580" />
            </Array>
          </mxGeometry>
        </mxCell>
        <mxCell id="dwe6SSOjRqwcFj5i-Lfe-119" value="Websocket" style="edgeLabel;html=1;align=center;verticalAlign=middle;resizable=0;points=[];" parent="dwe6SSOjRqwcFj5i-Lfe-118" vertex="1" connectable="0">
          <mxGeometry x="0.0714" y="3" relative="1" as="geometry">
            <mxPoint x="6" y="212" as="offset" />
          </mxGeometry>
        </mxCell>
        <mxCell id="dwe6SSOjRqwcFj5i-Lfe-120" value="Study notification server" style="rounded=1;whiteSpace=wrap;html=1;fillColor=#fff2cc;strokeColor=#d6b656;" parent="1" vertex="1">
          <mxGeometry x="1116" y="960" width="120" height="60" as="geometry" />
        </mxCell>
        <mxCell id="dwe6SSOjRqwcFj5i-Lfe-121" style="edgeStyle=orthogonalEdgeStyle;rounded=0;orthogonalLoop=1;jettySize=auto;html=1;exitX=1;exitY=0;exitDx=0;exitDy=0;" parent="1" source="dwe6SSOjRqwcFj5i-Lfe-123" target="dwe6SSOjRqwcFj5i-Lfe-148" edge="1">
          <mxGeometry relative="1" as="geometry">
            <Array as="points">
              <mxPoint x="809" y="1470" />
              <mxPoint x="940" y="1470" />
            </Array>
          </mxGeometry>
        </mxCell>
        <mxCell id="dwe6SSOjRqwcFj5i-Lfe-122" style="edgeStyle=orthogonalEdgeStyle;rounded=0;orthogonalLoop=1;jettySize=auto;html=1;entryX=0;entryY=0.5;entryDx=0;entryDy=0;exitX=0.5;exitY=0;exitDx=0;exitDy=0;" parent="1" source="dwe6SSOjRqwcFj5i-Lfe-123" target="dwe6SSOjRqwcFj5i-Lfe-117" edge="1">
          <mxGeometry relative="1" as="geometry" />
        </mxCell>
        <mxCell id="dwe6SSOjRqwcFj5i-Lfe-123" value="GridExplore" style="ellipse;whiteSpace=wrap;html=1;fillColor=#ffe6cc;strokeColor=#d79b00;" parent="1" vertex="1">
          <mxGeometry x="707" y="1530" width="120" height="80" as="geometry" />
        </mxCell>
        <mxCell id="dwe6SSOjRqwcFj5i-Lfe-124" value="PostgreSQL" style="shape=cylinder;whiteSpace=wrap;html=1;boundedLbl=1;backgroundOutline=1;fillColor=#dae8fc;strokeColor=#6c8ebf;" parent="1" vertex="1">
          <mxGeometry x="1276" y="894" width="80" height="80" as="geometry" />
        </mxCell>
        <mxCell id="dwe6SSOjRqwcFj5i-Lfe-125" style="edgeStyle=orthogonalEdgeStyle;rounded=0;orthogonalLoop=1;jettySize=auto;html=1;" parent="1" source="dwe6SSOjRqwcFj5i-Lfe-126" target="dwe6SSOjRqwcFj5i-Lfe-124" edge="1">
          <mxGeometry relative="1" as="geometry" />
        </mxCell>
        <mxCell id="dwe6SSOjRqwcFj5i-Lfe-126" value="Filter server" style="rounded=1;whiteSpace=wrap;html=1;fillColor=#fff2cc;strokeColor=#d6b656;" parent="1" vertex="1">
          <mxGeometry x="1200" y="1110" width="120" height="65" as="geometry" />
        </mxCell>
        <mxCell id="dwe6SSOjRqwcFj5i-Lfe-127" value="PostgreSQL" style="shape=cylinder;whiteSpace=wrap;html=1;boundedLbl=1;backgroundOutline=1;fillColor=#dae8fc;strokeColor=#6c8ebf;" parent="1" vertex="1">
          <mxGeometry x="1140" y="380" width="80" height="80" as="geometry" />
        </mxCell>
        <mxCell id="dwe6SSOjRqwcFj5i-Lfe-128" style="edgeStyle=orthogonalEdgeStyle;rounded=0;orthogonalLoop=1;jettySize=auto;html=1;entryX=0;entryY=0;entryDx=0;entryDy=0;" parent="1" source="dwe6SSOjRqwcFj5i-Lfe-129" target="dwe6SSOjRqwcFj5i-Lfe-11" edge="1">
          <mxGeometry relative="1" as="geometry" />
        </mxCell>
        <mxCell id="dwe6SSOjRqwcFj5i-Lfe-129" value="CGMES boundary server" style="rounded=1;whiteSpace=wrap;html=1;fillColor=#fff2cc;strokeColor=#d6b656;" parent="1" vertex="1">
          <mxGeometry x="89" y="230" width="120" height="65" as="geometry" />
        </mxCell>
        <mxCell id="dwe6SSOjRqwcFj5i-Lfe-130" style="edgeStyle=orthogonalEdgeStyle;rounded=0;orthogonalLoop=1;jettySize=auto;html=1;" parent="1" source="dwe6SSOjRqwcFj5i-Lfe-131" target="dwe6SSOjRqwcFj5i-Lfe-129" edge="1">
          <mxGeometry relative="1" as="geometry" />
        </mxCell>
        <mxCell id="dwe6SSOjRqwcFj5i-Lfe-131" value="PostgreSQL" style="shape=cylinder;whiteSpace=wrap;html=1;boundedLbl=1;backgroundOutline=1;fillColor=#dae8fc;strokeColor=#6c8ebf;" parent="1" vertex="1">
          <mxGeometry x="109" y="70" width="80" height="80" as="geometry" />
        </mxCell>
        <mxCell id="dwe6SSOjRqwcFj5i-Lfe-132" style="edgeStyle=orthogonalEdgeStyle;rounded=0;orthogonalLoop=1;jettySize=auto;html=1;entryX=1;entryY=0.5;entryDx=0;entryDy=0;" parent="1" source="dwe6SSOjRqwcFj5i-Lfe-134" target="dwe6SSOjRqwcFj5i-Lfe-124" edge="1">
          <mxGeometry relative="1" as="geometry">
            <Array as="points">
              <mxPoint x="1380" y="1330" />
              <mxPoint x="1380" y="940" />
            </Array>
          </mxGeometry>
        </mxCell>
        <mxCell id="dwe6SSOjRqwcFj5i-Lfe-133" style="edgeStyle=orthogonalEdgeStyle;rounded=0;orthogonalLoop=1;jettySize=auto;html=1;" parent="1" source="dwe6SSOjRqwcFj5i-Lfe-134" target="dwe6SSOjRqwcFj5i-Lfe-124" edge="1">
          <mxGeometry relative="1" as="geometry">
            <Array as="points">
              <mxPoint x="1280" y="1190" />
              <mxPoint x="1330" y="1190" />
            </Array>
          </mxGeometry>
        </mxCell>
        <mxCell id="dwe6SSOjRqwcFj5i-Lfe-134" value="Directory server" style="rounded=1;whiteSpace=wrap;html=1;fillColor=#fff2cc;strokeColor=#d6b656;" parent="1" vertex="1">
          <mxGeometry x="1200" y="1300" width="120" height="60" as="geometry" />
        </mxCell>
        <mxCell id="dwe6SSOjRqwcFj5i-Lfe-135" style="edgeStyle=orthogonalEdgeStyle;rounded=0;orthogonalLoop=1;jettySize=auto;html=1;entryX=0;entryY=0.188;entryDx=0;entryDy=0;exitX=1;exitY=0.5;exitDx=0;exitDy=0;entryPerimeter=0;" parent="1" source="dwe6SSOjRqwcFj5i-Lfe-136" target="dwe6SSOjRqwcFj5i-Lfe-197" edge="1">
          <mxGeometry relative="1" as="geometry">
            <Array as="points">
              <mxPoint x="1690" y="1390" />
              <mxPoint x="1690" y="1405" />
            </Array>
          </mxGeometry>
        </mxCell>
        <mxCell id="dwe6SSOjRqwcFj5i-Lfe-136" value="Dynamic mapping server" style="rounded=1;whiteSpace=wrap;html=1;fillColor=#fff2cc;strokeColor=#d6b656;" parent="1" vertex="1">
          <mxGeometry x="1390" y="1360" width="120" height="60" as="geometry" />
        </mxCell>
        <mxCell id="dwe6SSOjRqwcFj5i-Lfe-137" style="edgeStyle=orthogonalEdgeStyle;rounded=0;orthogonalLoop=1;jettySize=auto;html=1;" parent="1" source="dwe6SSOjRqwcFj5i-Lfe-138" target="dwe6SSOjRqwcFj5i-Lfe-136" edge="1">
          <mxGeometry relative="1" as="geometry" />
        </mxCell>
        <mxCell id="dwe6SSOjRqwcFj5i-Lfe-138" value="GridDyna" style="ellipse;whiteSpace=wrap;html=1;fillColor=#ffe6cc;strokeColor=#d79b00;" parent="1" vertex="1">
          <mxGeometry x="1390" y="1540" width="120" height="80" as="geometry" />
        </mxCell>
        <mxCell id="dwe6SSOjRqwcFj5i-Lfe-139" style="edgeStyle=orthogonalEdgeStyle;rounded=0;orthogonalLoop=1;jettySize=auto;html=1;entryX=1;entryY=0;entryDx=0;entryDy=0;exitX=0;exitY=0.5;exitDx=0;exitDy=0;" parent="1" source="dwe6SSOjRqwcFj5i-Lfe-143" target="dwe6SSOjRqwcFj5i-Lfe-107" edge="1">
          <mxGeometry relative="1" as="geometry">
            <Array as="points">
              <mxPoint x="859" y="1280" />
              <mxPoint x="425" y="1280" />
            </Array>
          </mxGeometry>
        </mxCell>
        <mxCell id="dwe6SSOjRqwcFj5i-Lfe-140" value="Websocket" style="edgeLabel;html=1;align=center;verticalAlign=middle;resizable=0;points=[];" parent="dwe6SSOjRqwcFj5i-Lfe-139" vertex="1" connectable="0">
          <mxGeometry x="-0.2517" y="2" relative="1" as="geometry">
            <mxPoint x="-93" as="offset" />
          </mxGeometry>
        </mxCell>
        <mxCell id="dwe6SSOjRqwcFj5i-Lfe-141" style="edgeStyle=orthogonalEdgeStyle;rounded=0;orthogonalLoop=1;jettySize=auto;html=1;" parent="1" source="dwe6SSOjRqwcFj5i-Lfe-143" target="dwe6SSOjRqwcFj5i-Lfe-113" edge="1">
          <mxGeometry relative="1" as="geometry">
            <Array as="points">
              <mxPoint x="1070" y="1278" />
            </Array>
          </mxGeometry>
        </mxCell>
        <mxCell id="dwe6SSOjRqwcFj5i-Lfe-142" value="Websocket" style="edgeLabel;html=1;align=center;verticalAlign=middle;resizable=0;points=[];" parent="dwe6SSOjRqwcFj5i-Lfe-141" vertex="1" connectable="0">
          <mxGeometry x="-0.4485" y="3" relative="1" as="geometry">
            <mxPoint x="-23" y="234" as="offset" />
          </mxGeometry>
        </mxCell>
        <mxCell id="dwe6SSOjRqwcFj5i-Lfe-143" value="Config notification server" style="rounded=1;whiteSpace=wrap;html=1;fillColor=#fff2cc;strokeColor=#d6b656;" parent="1" vertex="1">
          <mxGeometry x="859" y="1248" width="120" height="60" as="geometry" />
        </mxCell>
        <mxCell id="dwe6SSOjRqwcFj5i-Lfe-144" style="edgeStyle=orthogonalEdgeStyle;rounded=0;orthogonalLoop=1;jettySize=auto;html=1;entryX=0;entryY=0.75;entryDx=0;entryDy=0;exitX=1;exitY=0.25;exitDx=0;exitDy=0;" parent="1" source="dwe6SSOjRqwcFj5i-Lfe-148" target="dwe6SSOjRqwcFj5i-Lfe-134" edge="1">
          <mxGeometry relative="1" as="geometry">
            <Array as="points">
              <mxPoint x="1050" y="1396" />
              <mxPoint x="1050" y="1345" />
            </Array>
          </mxGeometry>
        </mxCell>
        <mxCell id="dwe6SSOjRqwcFj5i-Lfe-145" style="edgeStyle=orthogonalEdgeStyle;rounded=0;orthogonalLoop=1;jettySize=auto;html=1;entryX=0.383;entryY=0.983;entryDx=0;entryDy=0;entryPerimeter=0;exitX=0.75;exitY=0;exitDx=0;exitDy=0;" parent="1" source="dwe6SSOjRqwcFj5i-Lfe-148" target="dwe6SSOjRqwcFj5i-Lfe-79" edge="1">
          <mxGeometry relative="1" as="geometry" />
        </mxCell>
        <mxCell id="dwe6SSOjRqwcFj5i-Lfe-146" style="edgeStyle=orthogonalEdgeStyle;rounded=0;orthogonalLoop=1;jettySize=auto;html=1;entryX=0.5;entryY=1;entryDx=0;entryDy=0;" parent="1" source="dwe6SSOjRqwcFj5i-Lfe-148" target="dwe6SSOjRqwcFj5i-Lfe-49" edge="1">
          <mxGeometry relative="1" as="geometry" />
        </mxCell>
        <mxCell id="dwe6SSOjRqwcFj5i-Lfe-147" style="edgeStyle=orthogonalEdgeStyle;rounded=0;orthogonalLoop=1;jettySize=auto;html=1;exitX=0.875;exitY=0;exitDx=0;exitDy=0;exitPerimeter=0;entryX=0.002;entryY=0.649;entryDx=0;entryDy=0;entryPerimeter=0;" parent="1" source="dwe6SSOjRqwcFj5i-Lfe-148" target="dwe6SSOjRqwcFj5i-Lfe-126" edge="1">
          <mxGeometry relative="1" as="geometry">
            <mxPoint x="1190" y="1200" as="targetPoint" />
            <Array as="points">
              <mxPoint x="1015" y="1152" />
              <mxPoint x="1200" y="1152" />
            </Array>
          </mxGeometry>
        </mxCell>
        <mxCell id="dwe6SSOjRqwcFj5i-Lfe-148" value="&lt;div&gt;Explore server&lt;/div&gt;" style="rounded=1;whiteSpace=wrap;html=1;fillColor=#fff2cc;strokeColor=#d6b656;" parent="1" vertex="1">
          <mxGeometry x="910" y="1380" width="120" height="65" as="geometry" />
        </mxCell>
        <mxCell id="dwe6SSOjRqwcFj5i-Lfe-149" style="edgeStyle=orthogonalEdgeStyle;rounded=0;orthogonalLoop=1;jettySize=auto;html=1;entryX=0.15;entryY=0.05;entryDx=0;entryDy=0;entryPerimeter=0;exitX=0.75;exitY=1;exitDx=0;exitDy=0;" parent="1" source="dwe6SSOjRqwcFj5i-Lfe-154" target="dwe6SSOjRqwcFj5i-Lfe-197" edge="1">
          <mxGeometry relative="1" as="geometry">
            <mxPoint x="1576" y="1183" as="targetPoint" />
            <Array as="points">
              <mxPoint x="1600" y="1310" />
              <mxPoint x="1753" y="1310" />
            </Array>
          </mxGeometry>
        </mxCell>
        <mxCell id="dwe6SSOjRqwcFj5i-Lfe-150" style="edgeStyle=orthogonalEdgeStyle;rounded=0;orthogonalLoop=1;jettySize=auto;html=1;exitX=0.5;exitY=1;exitDx=0;exitDy=0;entryX=0.5;entryY=0;entryDx=0;entryDy=0;" parent="1" source="dwe6SSOjRqwcFj5i-Lfe-154" target="dwe6SSOjRqwcFj5i-Lfe-196" edge="1">
          <mxGeometry relative="1" as="geometry">
            <Array as="points">
              <mxPoint x="1570" y="1430" />
              <mxPoint x="1570" y="1430" />
            </Array>
          </mxGeometry>
        </mxCell>
        <mxCell id="dwe6SSOjRqwcFj5i-Lfe-151" value="send results" style="edgeLabel;html=1;align=center;verticalAlign=middle;resizable=0;points=[];" parent="dwe6SSOjRqwcFj5i-Lfe-150" vertex="1" connectable="0">
          <mxGeometry x="0.1407" y="-4" relative="1" as="geometry">
            <mxPoint x="1" y="-14" as="offset" />
          </mxGeometry>
        </mxCell>
        <mxCell id="dwe6SSOjRqwcFj5i-Lfe-152" style="edgeStyle=orthogonalEdgeStyle;rounded=0;orthogonalLoop=1;jettySize=auto;html=1;exitX=0.25;exitY=1;exitDx=0;exitDy=0;entryX=1;entryY=0.25;entryDx=0;entryDy=0;" parent="1" source="dwe6SSOjRqwcFj5i-Lfe-154" target="dwe6SSOjRqwcFj5i-Lfe-136" edge="1">
          <mxGeometry relative="1" as="geometry" />
        </mxCell>
        <mxCell id="dwe6SSOjRqwcFj5i-Lfe-153" value="&lt;div&gt;get mapping&lt;/div&gt;" style="edgeLabel;html=1;align=center;verticalAlign=middle;resizable=0;points=[];" parent="dwe6SSOjRqwcFj5i-Lfe-152" vertex="1" connectable="0">
          <mxGeometry x="-0.2321" relative="1" as="geometry">
            <mxPoint as="offset" />
          </mxGeometry>
        </mxCell>
        <mxCell id="dwe6SSOjRqwcFj5i-Lfe-154" value="Dynamic simulation server" style="rounded=1;whiteSpace=wrap;html=1;fillColor=#fff2cc;strokeColor=#d6b656;" parent="1" vertex="1">
          <mxGeometry x="1510" y="1200" width="120" height="60" as="geometry" />
        </mxCell>
        <mxCell id="dwe6SSOjRqwcFj5i-Lfe-155" style="edgeStyle=orthogonalEdgeStyle;rounded=0;orthogonalLoop=1;jettySize=auto;html=1;" parent="1" source="dwe6SSOjRqwcFj5i-Lfe-156" target="dwe6SSOjRqwcFj5i-Lfe-127" edge="1">
          <mxGeometry relative="1" as="geometry" />
        </mxCell>
        <mxCell id="dwe6SSOjRqwcFj5i-Lfe-156" value="Report server" style="rounded=1;whiteSpace=wrap;html=1;fillColor=#fff2cc;strokeColor=#d6b656;" parent="1" vertex="1">
          <mxGeometry x="920" y="390" width="120" height="60" as="geometry" />
        </mxCell>
        <mxCell id="dwe6SSOjRqwcFj5i-Lfe-157" value="" style="endArrow=classic;html=1;rounded=0;exitX=1;exitY=0;exitDx=0;exitDy=0;edgeStyle=orthogonalEdgeStyle;elbow=vertical;entryX=0;entryY=0.75;entryDx=0;entryDy=0;" parent="1" source="dwe6SSOjRqwcFj5i-Lfe-113" target="dwe6SSOjRqwcFj5i-Lfe-134" edge="1">
          <mxGeometry width="50" height="50" relative="1" as="geometry">
            <mxPoint x="970" y="1390" as="sourcePoint" />
            <mxPoint x="1200" y="1360" as="targetPoint" />
            <Array as="points">
              <mxPoint x="1148" y="1520" />
              <mxPoint x="1160" y="1520" />
              <mxPoint x="1160" y="1345" />
            </Array>
          </mxGeometry>
        </mxCell>
        <mxCell id="dwe6SSOjRqwcFj5i-Lfe-158" value="PostgreSQL" style="shape=cylinder;whiteSpace=wrap;html=1;boundedLbl=1;backgroundOutline=1;fillColor=#dae8fc;strokeColor=#6c8ebf;" parent="1" vertex="1">
          <mxGeometry x="707" width="80" height="80" as="geometry" />
        </mxCell>
        <mxCell id="dwe6SSOjRqwcFj5i-Lfe-159" value="PostgreSQL" style="shape=cylinder;whiteSpace=wrap;html=1;boundedLbl=1;backgroundOutline=1;fillColor=#dae8fc;strokeColor=#6c8ebf;" parent="1" vertex="1">
          <mxGeometry x="689" y="380" width="80" height="80" as="geometry" />
        </mxCell>
        <mxCell id="dwe6SSOjRqwcFj5i-Lfe-160" value="" style="endArrow=classic;html=1;rounded=0;entryX=1;entryY=0.25;entryDx=0;entryDy=0;exitX=0;exitY=0.5;exitDx=0;exitDy=0;edgeStyle=elbowEdgeStyle;" parent="1" source="dwe6SSOjRqwcFj5i-Lfe-99" target="dwe6SSOjRqwcFj5i-Lfe-7" edge="1">
          <mxGeometry width="50" height="50" relative="1" as="geometry">
            <mxPoint x="1210" y="410" as="sourcePoint" />
            <mxPoint x="1260" y="360" as="targetPoint" />
            <Array as="points">
              <mxPoint x="720" y="240" />
            </Array>
          </mxGeometry>
        </mxCell>
        <mxCell id="dwe6SSOjRqwcFj5i-Lfe-161" value="" style="endArrow=classic;html=1;rounded=0;entryX=0.5;entryY=1;entryDx=0;entryDy=0;edgeStyle=orthogonalEdgeStyle;" parent="1" target="dwe6SSOjRqwcFj5i-Lfe-143" edge="1">
          <mxGeometry width="50" height="50" relative="1" as="geometry">
            <mxPoint x="788" y="1530" as="sourcePoint" />
            <mxPoint x="710" y="1390" as="targetPoint" />
            <Array as="points">
              <mxPoint x="788" y="1350" />
              <mxPoint x="919" y="1350" />
            </Array>
          </mxGeometry>
        </mxCell>
        <mxCell id="dwe6SSOjRqwcFj5i-Lfe-162" value="" style="endArrow=classic;html=1;rounded=0;exitX=1;exitY=0.5;exitDx=0;exitDy=0;entryX=0;entryY=0.75;entryDx=0;entryDy=0;edgeStyle=orthogonalEdgeStyle;elbow=vertical;" parent="1" source="dwe6SSOjRqwcFj5i-Lfe-123" target="dwe6SSOjRqwcFj5i-Lfe-134" edge="1">
          <mxGeometry width="50" height="50" relative="1" as="geometry">
            <mxPoint x="660" y="1440" as="sourcePoint" />
            <mxPoint x="710" y="1390" as="targetPoint" />
            <Array as="points">
              <mxPoint x="827" y="1480" />
              <mxPoint x="1160" y="1480" />
              <mxPoint x="1160" y="1345" />
            </Array>
          </mxGeometry>
        </mxCell>
        <mxCell id="dwe6SSOjRqwcFj5i-Lfe-163" value="Directory notification server" style="rounded=1;whiteSpace=wrap;html=1;fillColor=#fff2cc;strokeColor=#d6b656;" parent="1" vertex="1">
          <mxGeometry x="1200" y="1400" width="120" height="60" as="geometry" />
        </mxCell>
        <mxCell id="dwe6SSOjRqwcFj5i-Lfe-164" style="edgeStyle=orthogonalEdgeStyle;rounded=0;orthogonalLoop=1;jettySize=auto;html=1;entryX=1;entryY=0.5;entryDx=0;entryDy=0;exitX=0.5;exitY=1;exitDx=0;exitDy=0;" parent="1" source="dwe6SSOjRqwcFj5i-Lfe-163" target="dwe6SSOjRqwcFj5i-Lfe-123" edge="1">
          <mxGeometry relative="1" as="geometry">
            <mxPoint x="1256" y="1260" as="sourcePoint" />
            <mxPoint x="1211.96" y="1786" as="targetPoint" />
            <Array as="points">
              <mxPoint x="1260" y="1500" />
              <mxPoint x="850" y="1500" />
              <mxPoint x="850" y="1570" />
            </Array>
          </mxGeometry>
        </mxCell>
        <mxCell id="dwe6SSOjRqwcFj5i-Lfe-165" value="Websocket" style="edgeLabel;html=1;align=center;verticalAlign=middle;resizable=0;points=[];" parent="dwe6SSOjRqwcFj5i-Lfe-164" vertex="1" connectable="0">
          <mxGeometry x="0.0714" y="3" relative="1" as="geometry">
            <mxPoint x="-139" y="17" as="offset" />
          </mxGeometry>
        </mxCell>
        <mxCell id="dwe6SSOjRqwcFj5i-Lfe-166" value="" style="endArrow=classic;html=1;rounded=0;elbow=vertical;entryX=0.5;entryY=0;entryDx=0;entryDy=0;exitX=0.5;exitY=1;exitDx=0;exitDy=0;" parent="1" source="dwe6SSOjRqwcFj5i-Lfe-134" target="dwe6SSOjRqwcFj5i-Lfe-163" edge="1">
          <mxGeometry width="50" height="50" relative="1" as="geometry">
            <mxPoint x="1250" y="1380" as="sourcePoint" />
            <mxPoint x="960" y="1270" as="targetPoint" />
          </mxGeometry>
        </mxCell>
        <mxCell id="dwe6SSOjRqwcFj5i-Lfe-167" style="edgeStyle=orthogonalEdgeStyle;rounded=0;orthogonalLoop=1;jettySize=auto;html=1;exitX=0;exitY=0.5;exitDx=0;exitDy=0;entryX=0.25;entryY=1;entryDx=0;entryDy=0;" parent="1" source="dwe6SSOjRqwcFj5i-Lfe-123" target="dwe6SSOjRqwcFj5i-Lfe-49" edge="1">
          <mxGeometry relative="1" as="geometry">
            <mxPoint x="777" y="1540" as="sourcePoint" />
            <mxPoint x="680" y="1220" as="targetPoint" />
            <Array as="points">
              <mxPoint x="667" y="1570" />
            </Array>
          </mxGeometry>
        </mxCell>
        <mxCell id="dwe6SSOjRqwcFj5i-Lfe-168" style="edgeStyle=orthogonalEdgeStyle;rounded=0;orthogonalLoop=1;jettySize=auto;html=1;exitX=0;exitY=0;exitDx=0;exitDy=0;entryX=0.001;entryY=0.649;entryDx=0;entryDy=0;entryPerimeter=0;" parent="1" source="dwe6SSOjRqwcFj5i-Lfe-123" target="dwe6SSOjRqwcFj5i-Lfe-126" edge="1">
          <mxGeometry relative="1" as="geometry">
            <mxPoint x="1025" y="1390" as="sourcePoint" />
            <mxPoint x="1190" y="1152" as="targetPoint" />
            <Array as="points">
              <mxPoint x="725" y="1330" />
              <mxPoint x="1040" y="1330" />
              <mxPoint x="1040" y="1152" />
            </Array>
          </mxGeometry>
        </mxCell>
        <mxCell id="dwe6SSOjRqwcFj5i-Lfe-169" style="edgeStyle=orthogonalEdgeStyle;rounded=0;orthogonalLoop=1;jettySize=auto;html=1;exitX=0;exitY=1;exitDx=0;exitDy=0;entryX=0.5;entryY=1;entryDx=0;entryDy=0;" parent="1" source="dwe6SSOjRqwcFj5i-Lfe-123" target="dwe6SSOjRqwcFj5i-Lfe-7" edge="1">
          <mxGeometry relative="1" as="geometry">
            <mxPoint x="717" y="1580" as="sourcePoint" />
            <mxPoint x="480" y="380" as="targetPoint" />
            <Array as="points">
              <mxPoint x="480" y="1598" />
            </Array>
          </mxGeometry>
        </mxCell>
        <mxCell id="dwe6SSOjRqwcFj5i-Lfe-170" value="Sensitivity analysis server" style="rounded=1;whiteSpace=wrap;html=1;fillColor=#fff2cc;strokeColor=#d6b656;" parent="1" vertex="1">
          <mxGeometry x="1510" y="880" width="120" height="65" as="geometry" />
        </mxCell>
        <mxCell id="dwe6SSOjRqwcFj5i-Lfe-171" style="edgeStyle=orthogonalEdgeStyle;rounded=0;orthogonalLoop=1;jettySize=auto;html=1;entryX=0.5;entryY=0;entryDx=0;entryDy=0;exitX=1;exitY=0.25;exitDx=0;exitDy=0;" parent="1" source="dwe6SSOjRqwcFj5i-Lfe-79" target="dwe6SSOjRqwcFj5i-Lfe-170" edge="1">
          <mxGeometry relative="1" as="geometry">
            <mxPoint x="1607" y="860" as="sourcePoint" />
            <mxPoint x="1400" y="912.5" as="targetPoint" />
          </mxGeometry>
        </mxCell>
        <mxCell id="dwe6SSOjRqwcFj5i-Lfe-172" value="run / get resuts" style="edgeLabel;html=1;align=center;verticalAlign=middle;resizable=0;points=[];" parent="dwe6SSOjRqwcFj5i-Lfe-171" vertex="1" connectable="0">
          <mxGeometry x="-0.2909" y="-2" relative="1" as="geometry">
            <mxPoint x="78" y="-4" as="offset" />
          </mxGeometry>
        </mxCell>
        <mxCell id="dwe6SSOjRqwcFj5i-Lfe-173" value="PostgreSQL" style="shape=cylinder;whiteSpace=wrap;html=1;boundedLbl=1;backgroundOutline=1;fillColor=#dae8fc;strokeColor=#6c8ebf;" parent="1" vertex="1">
          <mxGeometry x="1544" y="1000" width="86" height="80" as="geometry" />
        </mxCell>
        <mxCell id="dwe6SSOjRqwcFj5i-Lfe-174" value="store / load results" style="edgeStyle=orthogonalEdgeStyle;rounded=0;orthogonalLoop=1;jettySize=auto;html=1;entryX=0.399;entryY=0.017;entryDx=0;entryDy=0;entryPerimeter=0;" parent="1" target="dwe6SSOjRqwcFj5i-Lfe-173" edge="1">
          <mxGeometry x="-0.1129" relative="1" as="geometry">
            <Array as="points">
              <mxPoint x="1578" y="970" />
              <mxPoint x="1578" y="970" />
            </Array>
            <mxPoint as="offset" />
            <mxPoint x="1578" y="945" as="sourcePoint" />
            <mxPoint x="1578" y="990" as="targetPoint" />
          </mxGeometry>
        </mxCell>
        <mxCell id="dwe6SSOjRqwcFj5i-Lfe-175" style="edgeStyle=orthogonalEdgeStyle;rounded=0;orthogonalLoop=1;jettySize=auto;html=1;" parent="1" source="dwe6SSOjRqwcFj5i-Lfe-170" target="dwe6SSOjRqwcFj5i-Lfe-33" edge="1">
          <mxGeometry relative="1" as="geometry">
            <mxPoint x="799" y="542" as="targetPoint" />
            <mxPoint x="1650" y="880" as="sourcePoint" />
            <Array as="points">
              <mxPoint x="1619" y="850" />
              <mxPoint x="1650" y="850" />
              <mxPoint x="1650" y="542" />
            </Array>
          </mxGeometry>
        </mxCell>
        <mxCell id="dwe6SSOjRqwcFj5i-Lfe-176" value="&lt;div&gt;load filters&lt;/div&gt;&lt;div&gt;&lt;br&gt;&lt;/div&gt;" style="edgeStyle=orthogonalEdgeStyle;rounded=0;orthogonalLoop=1;jettySize=auto;html=1;" parent="1" edge="1">
          <mxGeometry x="-0.2222" relative="1" as="geometry">
            <mxPoint x="1510" y="907.5" as="sourcePoint" />
            <mxPoint x="1320" y="1160" as="targetPoint" />
            <Array as="points">
              <mxPoint x="1490" y="908" />
              <mxPoint x="1490" y="1160" />
              <mxPoint x="1433" y="1160" />
              <mxPoint x="1320" y="1159" />
            </Array>
            <mxPoint as="offset" />
          </mxGeometry>
        </mxCell>
        <mxCell id="dwe6SSOjRqwcFj5i-Lfe-177" value="&lt;div&gt;load contingencies&lt;/div&gt;&lt;div&gt;&lt;br&gt;&lt;/div&gt;" style="edgeStyle=orthogonalEdgeStyle;rounded=0;orthogonalLoop=1;jettySize=auto;html=1;exitX=0.997;exitY=0.582;exitDx=0;exitDy=0;exitPerimeter=0;entryX=1;entryY=0.651;entryDx=0;entryDy=0;entryPerimeter=0;" parent="1" source="dwe6SSOjRqwcFj5i-Lfe-170" target="dwe6SSOjRqwcFj5i-Lfe-49" edge="1">
          <mxGeometry x="-0.5148" relative="1" as="geometry">
            <mxPoint x="1520" y="917.5" as="sourcePoint" />
            <mxPoint x="760" y="1100" as="targetPoint" />
            <Array as="points">
              <mxPoint x="1640" y="918" />
              <mxPoint x="1640" y="1100" />
              <mxPoint x="760" y="1100" />
            </Array>
            <mxPoint as="offset" />
          </mxGeometry>
        </mxCell>
        <mxCell id="dwe6SSOjRqwcFj5i-Lfe-178" style="edgeStyle=orthogonalEdgeStyle;rounded=0;orthogonalLoop=1;jettySize=auto;html=1;entryX=0.75;entryY=1;entryDx=0;entryDy=0;exitX=1.002;exitY=0.159;exitDx=0;exitDy=0;exitPerimeter=0;" parent="1" source="dwe6SSOjRqwcFj5i-Lfe-170" target="dwe6SSOjRqwcFj5i-Lfe-156" edge="1">
          <mxGeometry relative="1" as="geometry">
            <mxPoint x="1010" y="460" as="targetPoint" />
            <mxPoint x="1630" y="890" as="sourcePoint" />
            <Array as="points">
              <mxPoint x="1660" y="890" />
              <mxPoint x="1660" y="480" />
              <mxPoint x="1010" y="480" />
            </Array>
          </mxGeometry>
        </mxCell>
        <mxCell id="dwe6SSOjRqwcFj5i-Lfe-179" style="edgeStyle=orthogonalEdgeStyle;rounded=0;orthogonalLoop=1;jettySize=auto;html=1;exitX=1;exitY=0.5;exitDx=0;exitDy=0;entryX=0;entryY=0.5;entryDx=0;entryDy=0;" parent="1" source="dwe6SSOjRqwcFj5i-Lfe-180" target="dwe6SSOjRqwcFj5i-Lfe-181" edge="1">
          <mxGeometry relative="1" as="geometry">
            <mxPoint x="1110" y="140" as="targetPoint" />
            <Array as="points">
              <mxPoint x="1113" y="50" />
              <mxPoint x="1113" y="120" />
            </Array>
          </mxGeometry>
        </mxCell>
        <mxCell id="dwe6SSOjRqwcFj5i-Lfe-180" value="User admin server" style="rounded=1;whiteSpace=wrap;html=1;fillColor=#fff2cc;strokeColor=#d6b656;" parent="1" vertex="1">
          <mxGeometry x="970" y="20" width="120" height="60" as="geometry" />
        </mxCell>
        <mxCell id="dwe6SSOjRqwcFj5i-Lfe-181" value="PostgreSQL" style="shape=cylinder;whiteSpace=wrap;html=1;boundedLbl=1;backgroundOutline=1;fillColor=#dae8fc;strokeColor=#6c8ebf;" parent="1" vertex="1">
          <mxGeometry x="1136" y="80" width="80" height="80" as="geometry" />
        </mxCell>
        <mxCell id="dwe6SSOjRqwcFj5i-Lfe-182" value="Shortcircuit server" style="rounded=1;whiteSpace=wrap;html=1;fillColor=#fff2cc;strokeColor=#d6b656;" parent="1" vertex="1">
          <mxGeometry x="1680" y="760" width="120" height="65" as="geometry" />
        </mxCell>
        <mxCell id="dwe6SSOjRqwcFj5i-Lfe-183" value="PostgreSQL" style="shape=cylinder;whiteSpace=wrap;html=1;boundedLbl=1;backgroundOutline=1;fillColor=#dae8fc;strokeColor=#6c8ebf;" parent="1" vertex="1">
          <mxGeometry x="1850" y="745" width="80" height="80" as="geometry" />
        </mxCell>
        <mxCell id="dwe6SSOjRqwcFj5i-Lfe-184" style="edgeStyle=orthogonalEdgeStyle;rounded=0;orthogonalLoop=1;jettySize=auto;html=1;exitX=0.75;exitY=0;exitDx=0;exitDy=0;" parent="1" source="dwe6SSOjRqwcFj5i-Lfe-79" target="dwe6SSOjRqwcFj5i-Lfe-182" edge="1">
          <mxGeometry relative="1" as="geometry">
            <Array as="points">
              <mxPoint x="1131" y="790" />
            </Array>
            <mxPoint x="1171" y="870" as="sourcePoint" />
            <mxPoint x="1326" y="910" as="targetPoint" />
          </mxGeometry>
        </mxCell>
        <mxCell id="dwe6SSOjRqwcFj5i-Lfe-185" value="" style="endArrow=classic;startArrow=classic;html=1;rounded=0;exitX=0;exitY=0.25;exitDx=0;exitDy=0;entryX=0.7;entryY=1;entryDx=0;entryDy=0;entryPerimeter=0;" parent="1" source="dwe6SSOjRqwcFj5i-Lfe-182" target="dwe6SSOjRqwcFj5i-Lfe-33" edge="1">
          <mxGeometry width="50" height="50" relative="1" as="geometry">
            <mxPoint x="990" y="880" as="sourcePoint" />
            <mxPoint x="1040" y="830" as="targetPoint" />
            <Array as="points">
              <mxPoint x="753" y="776" />
            </Array>
          </mxGeometry>
        </mxCell>
        <mxCell id="dwe6SSOjRqwcFj5i-Lfe-186" value="store / load results" style="edgeStyle=orthogonalEdgeStyle;rounded=0;orthogonalLoop=1;jettySize=auto;html=1;entryX=-0.037;entryY=0.6;entryDx=0;entryDy=0;exitX=1;exitY=0.5;exitDx=0;exitDy=0;entryPerimeter=0;" parent="1" source="dwe6SSOjRqwcFj5i-Lfe-182" target="dwe6SSOjRqwcFj5i-Lfe-183" edge="1">
          <mxGeometry x="-0.15" y="-17" relative="1" as="geometry">
            <Array as="points">
              <mxPoint x="1840" y="793" />
              <mxPoint x="1840" y="793" />
            </Array>
            <mxPoint y="1" as="offset" />
            <mxPoint x="1588" y="955" as="sourcePoint" />
            <mxPoint x="1588" y="1011" as="targetPoint" />
          </mxGeometry>
        </mxCell>
        <mxCell id="dwe6SSOjRqwcFj5i-Lfe-187" value="Study config server" style="rounded=1;whiteSpace=wrap;html=1;fillColor=#fff2cc;strokeColor=#d6b656;" parent="1" vertex="1">
          <mxGeometry x="890" y="1658" width="140" height="65" as="geometry" />
        </mxCell>
        <mxCell id="dwe6SSOjRqwcFj5i-Lfe-188" style="edgeStyle=orthogonalEdgeStyle;rounded=0;orthogonalLoop=1;jettySize=auto;html=1;exitX=1;exitY=0.5;exitDx=0;exitDy=0;entryX=-0.007;entryY=0.471;entryDx=0;entryDy=0;entryPerimeter=0;" parent="1" source="dwe6SSOjRqwcFj5i-Lfe-187" target="dwe6SSOjRqwcFj5i-Lfe-189" edge="1">
          <mxGeometry relative="1" as="geometry">
            <mxPoint x="1090" y="1650" as="targetPoint" />
            <Array as="points">
              <mxPoint x="1089" y="1691" />
            </Array>
            <mxPoint x="1020" y="1720" as="sourcePoint" />
          </mxGeometry>
        </mxCell>
        <mxCell id="dwe6SSOjRqwcFj5i-Lfe-189" value="PostgreSQL" style="shape=cylinder;whiteSpace=wrap;html=1;boundedLbl=1;backgroundOutline=1;fillColor=#dae8fc;strokeColor=#6c8ebf;" parent="1" vertex="1">
          <mxGeometry x="1093" y="1653" width="80" height="80" as="geometry" />
        </mxCell>
        <mxCell id="dwe6SSOjRqwcFj5i-Lfe-190" style="edgeStyle=orthogonalEdgeStyle;rounded=0;orthogonalLoop=1;jettySize=auto;html=1;exitX=0.667;exitY=1.077;exitDx=0;exitDy=0;exitPerimeter=0;entryX=0.573;entryY=0.003;entryDx=0;entryDy=0;entryPerimeter=0;" parent="1" edge="1">
          <mxGeometry relative="1" as="geometry">
            <Array as="points">
              <mxPoint x="953" y="1630" />
              <mxPoint x="952" y="1630" />
            </Array>
            <mxPoint x="953.0400000000002" y="1445.005" as="sourcePoint" />
            <mxPoint x="952.2199999999998" y="1658.1949999999997" as="targetPoint" />
          </mxGeometry>
        </mxCell>
        <mxCell id="dwe6SSOjRqwcFj5i-Lfe-191" style="edgeStyle=orthogonalEdgeStyle;rounded=0;orthogonalLoop=1;jettySize=auto;html=1;exitX=0.667;exitY=1.077;exitDx=0;exitDy=0;exitPerimeter=0;entryX=0;entryY=0.5;entryDx=0;entryDy=0;" parent="1" target="dwe6SSOjRqwcFj5i-Lfe-187" edge="1">
          <mxGeometry relative="1" as="geometry">
            <Array as="points">
              <mxPoint x="769" y="1690" />
              <mxPoint x="880" y="1690" />
            </Array>
            <mxPoint x="769.0400000000002" y="1610.005" as="sourcePoint" />
            <mxPoint x="769" y="1855" as="targetPoint" />
          </mxGeometry>
        </mxCell>
        <mxCell id="dwe6SSOjRqwcFj5i-Lfe-192" style="edgeStyle=orthogonalEdgeStyle;rounded=0;orthogonalLoop=1;jettySize=auto;html=1;entryX=0.85;entryY=0.05;entryDx=0;entryDy=0;entryPerimeter=0;exitX=0.75;exitY=1;exitDx=0;exitDy=0;" parent="1" source="dwe6SSOjRqwcFj5i-Lfe-193" target="dwe6SSOjRqwcFj5i-Lfe-197" edge="1">
          <mxGeometry relative="1" as="geometry">
            <Array as="points">
              <mxPoint x="1744" y="1290" />
              <mxPoint x="1817" y="1290" />
            </Array>
          </mxGeometry>
        </mxCell>
        <mxCell id="dwe6SSOjRqwcFj5i-Lfe-193" value="&lt;div&gt;Dynamic security analysis server&lt;/div&gt;" style="rounded=1;whiteSpace=wrap;html=1;fillColor=#fff2cc;strokeColor=#d6b656;" parent="1" vertex="1">
          <mxGeometry x="1654" y="1200" width="120" height="60" as="geometry" />
        </mxCell>
        <mxCell id="dwe6SSOjRqwcFj5i-Lfe-194" style="edgeStyle=orthogonalEdgeStyle;rounded=0;orthogonalLoop=1;jettySize=auto;html=1;exitX=1;exitY=0.5;exitDx=0;exitDy=0;" parent="1" source="dwe6SSOjRqwcFj5i-Lfe-196" target="dwe6SSOjRqwcFj5i-Lfe-197" edge="1">
          <mxGeometry relative="1" as="geometry" />
        </mxCell>
        <mxCell id="dwe6SSOjRqwcFj5i-Lfe-195" value="&lt;div&gt;store time-series&lt;/div&gt;" style="edgeLabel;html=1;align=center;verticalAlign=middle;resizable=0;points=[];" parent="dwe6SSOjRqwcFj5i-Lfe-194" vertex="1" connectable="0">
          <mxGeometry x="0.2203" y="-2" relative="1" as="geometry">
            <mxPoint x="-10" y="-12" as="offset" />
          </mxGeometry>
        </mxCell>
        <mxCell id="dwe6SSOjRqwcFj5i-Lfe-196" value="&lt;div&gt;Time-series server&lt;/div&gt;" style="rounded=1;whiteSpace=wrap;html=1;fillColor=#fff2cc;strokeColor=#d6b656;" parent="1" vertex="1">
          <mxGeometry x="1510" y="1445" width="120" height="60" as="geometry" />
        </mxCell>
        <mxCell id="dwe6SSOjRqwcFj5i-Lfe-197" value="PostgreSQL" style="shape=cylinder;whiteSpace=wrap;html=1;boundedLbl=1;backgroundOutline=1;fillColor=#dae8fc;strokeColor=#6c8ebf;" parent="1" vertex="1">
          <mxGeometry x="1740" y="1390" width="90" height="80" as="geometry" />
        </mxCell>
        <mxCell id="dwe6SSOjRqwcFj5i-Lfe-198" style="edgeStyle=orthogonalEdgeStyle;rounded=0;orthogonalLoop=1;jettySize=auto;html=1;exitX=0.5;exitY=1;exitDx=0;exitDy=0;entryX=0.828;entryY=1.039;entryDx=0;entryDy=0;entryPerimeter=0;" parent="1" source="dwe6SSOjRqwcFj5i-Lfe-193" target="dwe6SSOjRqwcFj5i-Lfe-154" edge="1">
          <mxGeometry relative="1" as="geometry">
            <Array as="points">
              <mxPoint x="1714" y="1280" />
              <mxPoint x="1609" y="1280" />
            </Array>
          </mxGeometry>
        </mxCell>
        <mxCell id="dwe6SSOjRqwcFj5i-Lfe-199" value="&lt;div&gt;get output state &lt;br&gt;&lt;/div&gt;" style="edgeLabel;html=1;align=center;verticalAlign=middle;resizable=0;points=[];" parent="dwe6SSOjRqwcFj5i-Lfe-198" vertex="1" connectable="0">
          <mxGeometry x="-0.2863" y="-2" relative="1" as="geometry">
            <mxPoint x="-20" y="12" as="offset" />
          </mxGeometry>
        </mxCell>
        <mxCell id="dwe6SSOjRqwcFj5i-Lfe-200" style="edgeStyle=orthogonalEdgeStyle;rounded=0;orthogonalLoop=1;jettySize=auto;html=1;exitX=0.5;exitY=0;exitDx=0;exitDy=0;entryX=0.5;entryY=1;entryDx=0;entryDy=0;" parent="1" source="dwe6SSOjRqwcFj5i-Lfe-202" target="dwe6SSOjRqwcFj5i-Lfe-50" edge="1">
          <mxGeometry relative="1" as="geometry">
            <Array as="points">
              <mxPoint x="577" y="1210" />
              <mxPoint x="527" y="1210" />
            </Array>
          </mxGeometry>
        </mxCell>
        <mxCell id="dwe6SSOjRqwcFj5i-Lfe-201" style="edgeStyle=orthogonalEdgeStyle;rounded=0;orthogonalLoop=1;jettySize=auto;html=1;exitX=1;exitY=0.5;exitDx=0;exitDy=0;entryX=0;entryY=0.75;entryDx=0;entryDy=0;" parent="1" source="dwe6SSOjRqwcFj5i-Lfe-202" target="dwe6SSOjRqwcFj5i-Lfe-148" edge="1">
          <mxGeometry relative="1" as="geometry" />
        </mxCell>
        <mxCell id="dwe6SSOjRqwcFj5i-Lfe-202" value="User identity OIDC replication server" style="rounded=1;whiteSpace=wrap;html=1;fillColor=#fff2cc;strokeColor=#d6b656;" parent="1" vertex="1">
          <mxGeometry x="516.5" y="1400" width="120" height="65" as="geometry" />
        </mxCell>
        <mxCell id="dwe6SSOjRqwcFj5i-Lfe-203" value="" style="endArrow=classic;html=1;rounded=0;entryX=0.635;entryY=0.016;entryDx=0;entryDy=0;entryPerimeter=0;exitX=0;exitY=0.5;exitDx=0;exitDy=0;" parent="1" source="dwe6SSOjRqwcFj5i-Lfe-113" target="dwe6SSOjRqwcFj5i-Lfe-187" edge="1">
          <mxGeometry width="50" height="50" relative="1" as="geometry">
            <mxPoint x="1020" y="1580" as="sourcePoint" />
            <mxPoint x="1030" y="1630" as="targetPoint" />
            <Array as="points">
              <mxPoint x="980" y="1580" />
            </Array>
          </mxGeometry>
        </mxCell>
        <mxCell id="dwe6SSOjRqwcFj5i-Lfe-204" style="edgeStyle=orthogonalEdgeStyle;rounded=0;orthogonalLoop=1;jettySize=auto;html=1;entryX=0.853;entryY=0.015;entryDx=0;entryDy=0;entryPerimeter=0;" parent="1" edge="1">
          <mxGeometry relative="1" as="geometry">
            <Array as="points">
              <mxPoint x="1056" y="1460" />
              <mxPoint x="1005" y="1460" />
            </Array>
            <mxPoint x="1056" y="890" as="sourcePoint" />
            <mxPoint x="1005.4200000000001" y="1658.975" as="targetPoint" />
          </mxGeometry>
        </mxCell>
        <mxCell id="dwe6SSOjRqwcFj5i-Lfe-205" value="PostgreSQL" style="shape=cylinder;whiteSpace=wrap;html=1;boundedLbl=1;backgroundOutline=1;fillColor=#dae8fc;strokeColor=#6c8ebf;" parent="1" vertex="1">
          <mxGeometry x="816.5" y="380" width="80" height="80" as="geometry" />
        </mxCell>
        <mxCell id="dwe6SSOjRqwcFj5i-Lfe-206" style="edgeStyle=orthogonalEdgeStyle;rounded=0;orthogonalLoop=1;jettySize=auto;html=1;exitX=0.25;exitY=0;exitDx=0;exitDy=0;entryX=0.656;entryY=1;entryDx=0;entryDy=0;entryPerimeter=0;" parent="1" source="dwe6SSOjRqwcFj5i-Lfe-81" target="dwe6SSOjRqwcFj5i-Lfe-205" edge="1">
          <mxGeometry relative="1" as="geometry" />
        </mxCell>
        <mxCell id="dwe6SSOjRqwcFj5i-Lfe-207" value="&lt;div&gt;Dynamic margin calculation server&lt;/div&gt;" style="rounded=1;whiteSpace=wrap;html=1;fillColor=#fff2cc;strokeColor=#d6b656;" parent="1" vertex="1">
          <mxGeometry x="1800" y="1200" width="120" height="60" as="geometry" />
        </mxCell>
        <mxCell id="dwe6SSOjRqwcFj5i-Lfe-208" value="" style="endArrow=classic;html=1;rounded=0;entryX=0.5;entryY=0;entryDx=0;entryDy=0;" parent="1" target="dwe6SSOjRqwcFj5i-Lfe-207" edge="1">
          <mxGeometry width="50" height="50" relative="1" as="geometry">
            <mxPoint x="1710" y="1030" as="sourcePoint" />
            <mxPoint x="1730" y="1190" as="targetPoint" />
            <Array as="points">
              <mxPoint x="1860" y="1030" />
            </Array>
          </mxGeometry>
        </mxCell>
        <mxCell id="dwe6SSOjRqwcFj5i-Lfe-209" value="run / get results" style="edgeLabel;html=1;align=center;verticalAlign=middle;resizable=0;points=[];" parent="dwe6SSOjRqwcFj5i-Lfe-208" vertex="1" connectable="0">
          <mxGeometry x="0.2129" y="1" relative="1" as="geometry">
            <mxPoint as="offset" />
          </mxGeometry>
        </mxCell>
        <mxCell id="dwe6SSOjRqwcFj5i-Lfe-210" value="" style="endArrow=classic;html=1;rounded=0;exitX=0.5;exitY=1;exitDx=0;exitDy=0;entryX=1;entryY=0.5;entryDx=0;entryDy=0;" parent="1" source="dwe6SSOjRqwcFj5i-Lfe-207" target="dwe6SSOjRqwcFj5i-Lfe-197" edge="1">
          <mxGeometry width="50" height="50" relative="1" as="geometry">
            <mxPoint x="1865" y="1350" as="sourcePoint" />
            <mxPoint x="1860" y="1450" as="targetPoint" />
            <Array as="points">
              <mxPoint x="1860" y="1430" />
            </Array>
          </mxGeometry>
        </mxCell>
        <mxCell id="dwe6SSOjRqwcFj5i-Lfe-211" value="" style="endArrow=classic;html=1;rounded=0;exitX=0.25;exitY=1;exitDx=0;exitDy=0;entryX=1;entryY=0.75;entryDx=0;entryDy=0;" parent="1" source="dwe6SSOjRqwcFj5i-Lfe-207" target="dwe6SSOjRqwcFj5i-Lfe-136" edge="1">
          <mxGeometry width="50" height="50" relative="1" as="geometry">
            <mxPoint x="1890" y="1350" as="sourcePoint" />
            <mxPoint x="1940" y="1300" as="targetPoint" />
            <Array as="points">
              <mxPoint x="1830" y="1340" />
              <mxPoint x="1660" y="1340" />
              <mxPoint x="1660" y="1405" />
            </Array>
          </mxGeometry>
        </mxCell>
        <mxCell id="dwe6SSOjRqwcFj5i-Lfe-212" value="get mapping" style="edgeLabel;html=1;align=center;verticalAlign=middle;resizable=0;points=[];" parent="dwe6SSOjRqwcFj5i-Lfe-211" vertex="1" connectable="0">
          <mxGeometry x="-0.1355" y="-1" relative="1" as="geometry">
            <mxPoint as="offset" />
          </mxGeometry>
        </mxCell>
      </root>
    </mxGraphModel>
  </diagram>
</mxfile>
